<svg width="350" height="350" viewBox="0 0 350 350" fill="none" xmlns="http://www.w3.org/2000/svg">
<path fill-rule="evenodd" clip-rule="evenodd" d="M146.941 54.7643C145.922 54.7643 145.095 55.5908 145.095 56.6103C145.095 57.6298 145.922 58.4563 146.941 58.4563C147.961 58.4563 148.787 57.6298 148.787 56.6103C148.787 55.5908 147.961 54.7643 146.941 54.7643ZM144.357 56.6103C144.357 55.183 145.514 54.0259 146.941 54.0259C148.369 54.0259 149.526 55.183 149.526 56.6103C149.526 58.0376 148.369 59.1947 146.941 59.1947C145.514 59.1947 144.357 58.0376 144.357 56.6103Z" fill="white"/>
<path fill-rule="evenodd" clip-rule="evenodd" d="M304.589 157.401V200.721H254.747V199.982H303.85V157.401H304.589Z" fill="white"/>
<path fill-rule="evenodd" clip-rule="evenodd" d="M350 122.574H254.747V121.835H350V122.574Z" fill="white"/>
<path fill-rule="evenodd" clip-rule="evenodd" d="M95.254 122.451L0.000958955 122.574L0 121.836L95.253 121.712L95.254 122.451Z" fill="white"/>
<path fill-rule="evenodd" clip-rule="evenodd" d="M95.2535 227.795H0.000479477V227.057H95.2535V227.795Z" fill="white"/>
<path fill-rule="evenodd" clip-rule="evenodd" d="M321.818 157.278V227.672H254.747V226.934H321.08V157.278H321.818Z" fill="white"/>
<path fill-rule="evenodd" clip-rule="evenodd" d="M304.219 152.725C302.928 152.725 301.881 153.772 301.881 155.063C301.881 156.354 302.928 157.401 304.219 157.401C305.511 157.401 306.558 156.354 306.558 155.063C306.558 153.772 305.511 152.725 304.219 152.725ZM301.143 155.063C301.143 153.364 302.52 151.986 304.219 151.986C305.919 151.986 307.296 153.364 307.296 155.063C307.296 156.762 305.919 158.14 304.219 158.14C302.52 158.14 301.143 156.762 301.143 155.063Z" fill="white"/>
<path fill-rule="evenodd" clip-rule="evenodd" d="M321.449 152.971C320.293 152.971 319.357 153.908 319.357 155.063C319.357 156.219 320.293 157.155 321.449 157.155C322.604 157.155 323.541 156.219 323.541 155.063C323.541 153.908 322.604 152.971 321.449 152.971ZM318.618 155.063C318.618 153.5 319.885 152.233 321.449 152.233C323.012 152.233 324.279 153.5 324.279 155.063C324.279 156.626 323.012 157.894 321.449 157.894C319.885 157.894 318.618 156.626 318.618 155.063Z" fill="white"/>
<path fill-rule="evenodd" clip-rule="evenodd" d="M228.78 349.384V255.116H229.518V349.384H228.78Z" fill="white"/>
<path fill-rule="evenodd" clip-rule="evenodd" d="M228.78 95.0069V0H229.518V95.0069H228.78Z" fill="white"/>
<path fill-rule="evenodd" clip-rule="evenodd" d="M201.706 95.0069V0H202.444V95.0069H201.706Z" fill="white"/>
<path fill-rule="evenodd" clip-rule="evenodd" d="M174.385 95.0069V0H175.123V95.0069H174.385Z" fill="white"/>
<path fill-rule="evenodd" clip-rule="evenodd" d="M123.682 95.0069V0H124.42V95.0069H123.682Z" fill="white"/>
<path fill-rule="evenodd" clip-rule="evenodd" d="M146.572 95.0069V58.5794H147.31V95.0069H146.572Z" fill="white"/>
<path fill-rule="evenodd" clip-rule="evenodd" d="M201.706 349.384V255.116H202.444V349.384H201.706Z" fill="white"/>
<path fill-rule="evenodd" clip-rule="evenodd" d="M174.385 349.384V255.116H175.123V349.384H174.385Z" fill="white"/>
<path fill-rule="evenodd" clip-rule="evenodd" d="M146.572 286.744L146.572 254.5H147.31L147.31 286.744H146.572Z" fill="white"/>
<path fill-rule="evenodd" clip-rule="evenodd" d="M146.941 287.113C145.922 287.113 145.095 287.939 145.095 288.959C145.095 289.978 145.922 290.805 146.941 290.805C147.961 290.805 148.787 289.978 148.787 288.959C148.787 287.939 147.961 287.113 146.941 287.113ZM144.357 288.959C144.357 287.531 145.514 286.374 146.941 286.374C148.369 286.374 149.526 287.531 149.526 288.959C149.526 290.386 148.369 291.543 146.941 291.543C145.514 291.543 144.357 290.386 144.357 288.959Z" fill="white"/>
<path fill-rule="evenodd" clip-rule="evenodd" d="M89.3463 274.56C88.3268 274.56 87.5004 275.387 87.5004 276.406C87.5004 277.426 88.3268 278.252 89.3463 278.252C90.3659 278.252 91.1923 277.426 91.1923 276.406C91.1923 275.387 90.3659 274.56 89.3463 274.56ZM86.762 276.406C86.762 274.979 87.919 273.822 89.3463 273.822C90.7737 273.822 91.9307 274.979 91.9307 276.406C91.9307 277.833 90.7737 278.99 89.3463 278.99C87.919 278.99 86.762 277.833 86.762 276.406Z" fill="white"/>
<path fill-rule="evenodd" clip-rule="evenodd" d="M123.436 276.037V254.5H124.174V276.775H91.3154V276.037H123.436Z" fill="white"/>
<path d="M121.343 247.855H126.512V254.5H121.343V247.855Z" fill="#3B3939"/>
<path d="M144.48 247.855H149.649V254.5H144.48V247.855Z" fill="#3B3939"/>
<path d="M172.047 247.855H177.215V254.5H172.047V247.855Z" fill="#3B3939"/>
<path d="M199.613 247.855H204.782V254.5H199.613V247.855Z" fill="#3B3939"/>
<path d="M226.688 247.855H231.857V254.5H226.688V247.855Z" fill="#3B3939"/>
<path d="M95.2535 230.133V224.965H101.899V230.133H95.2535Z" fill="#3B3939"/>
<path d="M95.2535 124.789V119.62H101.899V124.789H95.2535Z" fill="#3B3939"/>
<path d="M254.747 119.62V124.789H248.101V119.62H254.747Z" fill="#3B3939"/>
<path d="M254.747 197.89V203.059H248.101V197.89H254.747Z" fill="#3B3939"/>
<path d="M254.747 224.965V230.133H248.101V224.965H254.747Z" fill="#3B3939"/>
<path d="M121.343 95.0069H126.512V101.652H121.343V95.0069Z" fill="#3B3939"/>
<path d="M144.48 95.0069H149.649V101.652H144.48V95.0069Z" fill="#3B3939"/>
<path d="M172.047 95.0069H177.215V101.652H172.047V95.0069Z" fill="#3B3939"/>
<path d="M199.613 95.0069H204.782V101.652H199.613V95.0069Z" fill="#3B3939"/>
<path d="M226.688 95.0069H231.857V101.652H226.688V95.0069Z" fill="#3B3939"/>
<path fill-rule="evenodd" clip-rule="evenodd" d="M125.774 248.593H122.082V253.762H125.774V248.593ZM121.343 247.855V254.5H126.512V247.855H121.343Z" fill="#DBDBDB"/>
<path fill-rule="evenodd" clip-rule="evenodd" d="M148.91 248.593H145.218V253.762H148.91V248.593ZM144.48 247.855V254.5H149.649V247.855H144.48Z" fill="#DBDBDB"/>
<path fill-rule="evenodd" clip-rule="evenodd" d="M176.477 248.593H172.785V253.762H176.477V248.593ZM172.047 247.855V254.5H177.215V247.855H172.047Z" fill="#DBDBDB"/>
<path fill-rule="evenodd" clip-rule="evenodd" d="M204.044 248.593H200.352V253.762H204.044V248.593ZM199.613 247.855V254.5H204.782V247.855H199.613Z" fill="#DBDBDB"/>
<path fill-rule="evenodd" clip-rule="evenodd" d="M231.118 248.593H227.426V253.762H231.118V248.593ZM226.688 247.855V254.5H231.857V247.855H226.688Z" fill="#DBDBDB"/>
<path fill-rule="evenodd" clip-rule="evenodd" d="M95.9919 225.703V229.395H101.161V225.703H95.9919ZM95.2535 230.133H101.899V224.965H95.2535V230.133Z" fill="#DBDBDB"/>
<path fill-rule="evenodd" clip-rule="evenodd" d="M95.9919 120.358V124.05H101.161V120.358H95.9919ZM95.2535 124.789H101.899V119.62H95.2535V124.789Z" fill="#DBDBDB"/>
<path fill-rule="evenodd" clip-rule="evenodd" d="M254.009 124.05V120.358H248.84V124.05H254.009ZM254.747 119.62H248.101V124.789H254.747V119.62Z" fill="#DBDBDB"/>
<path fill-rule="evenodd" clip-rule="evenodd" d="M254.009 202.32V198.628H248.84V202.32H254.009ZM254.747 197.89H248.101V203.059H254.747V197.89Z" fill="#DBDBDB"/>
<path fill-rule="evenodd" clip-rule="evenodd" d="M254.009 229.395V225.703H248.84V229.395H254.009ZM254.747 224.965H248.101V230.133H254.747V224.965Z" fill="#DBDBDB"/>
<path fill-rule="evenodd" clip-rule="evenodd" d="M125.774 95.7453H122.082V100.914H125.774V95.7453ZM121.343 95.0069V101.652H126.512V95.0069H121.343Z" fill="#DBDBDB"/>
<path fill-rule="evenodd" clip-rule="evenodd" d="M148.91 95.7453H145.218V100.914H148.91V95.7453ZM144.48 95.0069V101.652H149.649V95.0069H144.48Z" fill="#DBDBDB"/>
<path fill-rule="evenodd" clip-rule="evenodd" d="M176.477 95.7453H172.785V100.914H176.477V95.7453ZM172.047 95.0069V101.652H177.215V95.0069H172.047Z" fill="#DBDBDB"/>
<path fill-rule="evenodd" clip-rule="evenodd" d="M204.044 95.7453H200.352V100.914H204.044V95.7453ZM199.613 95.0069V101.652H204.782V95.0069H199.613Z" fill="#DBDBDB"/>
<path fill-rule="evenodd" clip-rule="evenodd" d="M231.118 95.7453H227.426V100.914H231.118V95.7453ZM226.688 95.0069V101.652H231.857V95.0069H226.688Z" fill="#DBDBDB"/>
<path d="M101.161 100.914H248.84V248.593H101.161V100.914Z" fill="url(#paint0_linear_366_51)"/>
<path d="M105.099 105.098H244.656V244.655H105.099V105.098Z" fill="#101010"/>
<path d="M141.588 157.463H138.573C139.951 157.857 142.203 158.919 143.157 159.401C143.108 159.007 142.09 157.945 141.588 157.463Z" fill="#7B7B7B"/>
<path d="M143.618 160.047L139.311 160.416C142.437 160.786 143.916 161.616 144.265 161.986L144.665 161.801C144.468 161.235 143.885 160.396 143.618 160.047Z" fill="#7B7B7B"/>
<path d="M148.91 161.678L148.326 160.724C150.615 159.715 153.341 160.037 154.418 160.324C150.756 160.816 149.987 162.324 149.926 162.201C149.876 162.102 149.228 161.811 148.91 161.678Z" fill="#7B7B7B"/>
<path d="M147.987 160.416L147.28 159.555C149.47 156.085 152.438 153.904 153.648 153.248C151.236 156.152 149.956 158.991 149.618 160.047C148.88 160.17 148.223 160.345 147.987 160.416Z" fill="#7B7B7B"/>
<path d="M150.079 159.893L150.387 158.97C151.889 157.986 153.289 158.129 153.802 158.324C152.178 158.546 150.643 159.463 150.079 159.893Z" fill="#7B7B7B"/>
<path d="M150.849 158.17L151.71 156.417C152.768 155.408 154.202 155.094 154.787 155.063C153.728 155.482 151.72 157.309 150.849 158.17Z" fill="#7B7B7B"/>
<path d="M146.387 154.817C146.117 154.275 145.126 153.463 144.665 153.125L145.157 147.187C146.954 150.116 147.546 152.366 147.618 153.125C147.421 153.297 146.716 154.325 146.387 154.817Z" fill="#7B7B7B"/>
<path d="M147.987 157.771C147.889 157.131 147.126 155.842 146.757 155.278C148.972 150.971 150.664 150.048 152.172 149.156C150.35 151.962 149.403 155.227 149.156 156.509L147.987 157.771Z" fill="#7B7B7B"/>
<path d="M145.034 161.678C144.221 159.561 140.901 155.935 139.342 154.386C143.428 155.986 147.116 159.791 148.449 161.493C146.923 161.173 145.536 161.483 145.034 161.678Z" fill="#7B7B7B"/>
<path d="M146.941 159.155L144.234 156.909C143.594 154.349 140.932 151.966 139.68 151.094C144.48 152.128 147.157 156.16 147.895 158.047L146.941 159.155Z" fill="#7B7B7B"/>
<path d="M147.574 162.076C147.365 162.057 147.154 162.047 146.941 162.047C146.707 162.047 146.475 162.059 146.246 162.082L146.911 162.738L147.574 162.076Z" fill="#7B7B7B"/>
<path d="M145.131 162.286C143.954 162.601 142.867 163.218 141.922 164.068L143.765 165.884L146.255 163.394L145.131 162.286Z" fill="#7B7B7B"/>
<path d="M141.264 164.723C140.48 165.585 139.822 166.622 139.329 167.786L140.605 169.044L143.108 166.541L141.264 164.723Z" fill="#7B7B7B"/>
<path d="M138.972 168.738C138.713 169.525 138.527 170.359 138.423 171.226L139.949 169.701L138.972 168.738Z" fill="#7B7B7B"/>
<path d="M138.327 172.973C138.327 172.931 138.327 172.889 138.327 172.846C138.327 172.775 138.327 172.704 138.328 172.634L140.61 170.352L143.14 172.847L140.687 175.3L138.327 172.973Z" fill="#7B7B7B"/>
<path d="M138.379 174.328C138.45 175.321 138.597 176.272 138.827 177.16L140.031 175.956L138.379 174.328Z" fill="#7B7B7B"/>
<path d="M139.133 178.167C139.558 179.375 140.162 180.438 140.965 181.298L143.192 179.072L140.692 176.608L139.133 178.167Z" fill="#7B7B7B"/>
<path d="M141.642 181.935C142.575 182.702 143.723 183.241 145.111 183.49L146.383 182.218L143.853 179.724L141.642 181.935Z" fill="#7B7B7B"/>
<path d="M146.288 183.627C146.501 183.639 146.718 183.645 146.941 183.645C147.237 183.645 147.523 183.635 147.801 183.615L147.045 182.87L146.288 183.627Z" fill="#7B7B7B"/>
<path d="M148.971 183.465C150.338 183.206 151.455 182.675 152.355 181.93L150.154 179.76L147.701 182.213L148.971 183.465Z" fill="#7B7B7B"/>
<path d="M153.028 181.29C153.835 180.414 154.423 179.327 154.827 178.092L153.314 176.6L150.81 179.104L153.028 181.29Z" fill="#7B7B7B"/>
<path d="M155.113 177.071C155.311 176.233 155.438 175.341 155.503 174.411L153.97 175.944L155.113 177.071Z" fill="#7B7B7B"/>
<path d="M155.553 172.559C155.555 172.655 155.556 172.75 155.556 172.846C155.556 172.913 155.556 172.98 155.555 173.046L153.309 175.292L150.779 172.798L153.269 170.308L155.553 172.559Z" fill="#7B7B7B"/>
<path d="M155.451 171.155C155.343 170.293 155.153 169.465 154.893 168.684L153.925 169.651L155.451 171.155Z" fill="#7B7B7B"/>
<path d="M154.531 167.733C154.036 166.581 153.379 165.555 152.598 164.702L150.764 166.536L153.264 169L154.531 167.733Z" fill="#7B7B7B"/>
<path d="M151.938 164.049L150.103 165.884L147.573 163.39L148.692 162.27C149.882 162.578 150.983 163.194 151.938 164.049Z" fill="#7B7B7B"/>
<path d="M141.348 175.952L143.848 178.415L146.301 175.963L143.801 173.499L141.348 175.952Z" fill="#7B7B7B"/>
<path d="M144.509 179.067L147.04 181.562L149.493 179.109L146.962 176.614L144.509 179.067Z" fill="#7B7B7B"/>
<path d="M152.653 175.949L150.149 178.452L147.619 175.958L150.122 173.454L152.653 175.949Z" fill="#7B7B7B"/>
<path d="M149.461 172.803L146.958 175.306L144.458 172.842L146.961 170.339L149.461 172.803Z" fill="#7B7B7B"/>
<path d="M146.3 169.687L143.797 172.19L141.266 169.696L143.77 167.193L146.3 169.687Z" fill="#7B7B7B"/>
<path d="M150.108 167.192L152.608 169.656L150.117 172.146L147.618 169.682L150.108 167.192Z" fill="#7B7B7B"/>
<path d="M146.957 169.03L149.447 166.54L146.916 164.046L144.426 166.536L146.957 169.03Z" fill="#7B7B7B"/>
<path d="M191.852 191.871C191.852 193.237 191.593 194.4 191.075 195.358C190.561 196.317 189.86 197.049 188.97 197.555C188.085 198.057 187.09 198.307 185.985 198.307C184.871 198.307 183.872 198.055 182.987 197.549C182.102 197.043 181.402 196.311 180.888 195.352C180.374 194.394 180.117 193.233 180.117 191.871C180.117 190.505 180.374 189.342 180.888 188.384C181.402 187.425 182.102 186.695 182.987 186.193C183.872 185.687 184.871 185.434 185.985 185.434C187.09 185.434 188.085 185.687 188.97 186.193C189.86 186.695 190.561 187.425 191.075 188.384C191.593 189.342 191.852 190.505 191.852 191.871ZM189.166 191.871C189.166 190.986 189.034 190.239 188.769 189.632C188.507 189.024 188.138 188.563 187.661 188.249C187.184 187.935 186.625 187.778 185.985 187.778C185.344 187.778 184.786 187.935 184.308 188.249C183.831 188.563 183.46 189.024 183.195 189.632C182.934 190.239 182.803 190.986 182.803 191.871C182.803 192.756 182.934 193.503 183.195 194.11C183.46 194.718 183.831 195.179 184.308 195.493C184.786 195.807 185.344 195.964 185.985 195.964C186.625 195.964 187.184 195.807 187.661 195.493C188.138 195.179 188.507 194.718 188.769 194.11C189.034 193.503 189.166 192.756 189.166 191.871Z" fill="#7B7B7B"/>
<path d="M169.031 198.136V185.606H173.974C174.921 185.606 175.728 185.775 176.397 186.114C177.07 186.448 177.582 186.923 177.933 187.539C178.288 188.151 178.465 188.871 178.465 189.699C178.465 190.531 178.286 191.247 177.927 191.847C177.568 192.442 177.048 192.899 176.367 193.217C175.69 193.535 174.87 193.694 173.907 193.694H170.597V191.565H173.479C173.985 191.565 174.405 191.496 174.739 191.357C175.074 191.218 175.322 191.01 175.486 190.733C175.653 190.456 175.737 190.111 175.737 189.699C175.737 189.283 175.653 188.932 175.486 188.647C175.322 188.361 175.072 188.145 174.733 187.998C174.399 187.847 173.976 187.772 173.467 187.772H171.68V198.136H169.031ZM175.798 192.434L178.912 198.136H175.987L172.94 192.434H175.798Z" fill="#7B7B7B"/>
<path d="M157.876 198.136V185.606H162.819C163.77 185.606 164.579 185.787 165.248 186.15C165.917 186.509 166.427 187.009 166.778 187.649C167.133 188.286 167.31 189.02 167.31 189.852C167.31 190.684 167.131 191.418 166.772 192.055C166.413 192.691 165.893 193.186 165.211 193.541C164.534 193.896 163.714 194.074 162.752 194.074H159.601V191.951H162.324C162.833 191.951 163.254 191.863 163.584 191.687C163.918 191.508 164.167 191.261 164.33 190.947C164.498 190.629 164.581 190.264 164.581 189.852C164.581 189.436 164.498 189.073 164.33 188.763C164.167 188.449 163.918 188.206 163.584 188.035C163.249 187.859 162.825 187.772 162.311 187.772H160.525V198.136H157.876Z" fill="#7B7B7B"/>
<path d="M196.643 183.614L205.548 165.994V165.847H195.175V162.134H210.247V165.899L201.331 183.614H196.643Z" fill="#7B7B7B"/>
<path d="M190.688 162.134V183.614H186.147V166.445H186.021L181.102 169.528V165.501L186.419 162.134H190.688Z" fill="#7B7B7B"/>
<path d="M162.345 183.614V162.134H170.82C172.449 162.134 173.837 162.445 174.984 163.067C176.131 163.683 177.005 164.539 177.606 165.637C178.215 166.728 178.519 167.986 178.519 169.413C178.519 170.839 178.211 172.098 177.596 173.189C176.98 174.28 176.089 175.129 174.921 175.737C173.76 176.346 172.355 176.65 170.705 176.65H165.303V173.01H169.971C170.845 173.01 171.565 172.86 172.131 172.559C172.705 172.252 173.131 171.829 173.411 171.29C173.698 170.745 173.841 170.119 173.841 169.413C173.841 168.7 173.698 168.077 173.411 167.546C173.131 167.007 172.705 166.591 172.131 166.298C171.558 165.997 170.831 165.847 169.95 165.847H166.887V183.614H162.345Z" fill="#7B7B7B"/>
<defs>
<linearGradient id="paint0_linear_366_51" x1="175" y1="0" x2="175" y2="349.384" gradientUnits="userSpaceOnUse">
<stop stop-color="#333333"/>
<stop offset="1" stop-color="#999999"/>
</linearGradient>
</defs>
</svg>
