<svg width="1422" height="1422" viewBox="0 0 1422 1422" fill="none" xmlns="http://www.w3.org/2000/svg">
<g id="Chip">
<path id="board" d="M0.00195312 0H1422V1422H0.00195312V0Z" fill="#1B1B1B"/>
<g id="led_connectors">
<path d="M469.002 464C469.002 469.523 464.525 474 459.002 474C453.479 474 449.002 469.523 449.002 464C449.002 458.477 453.479 454 459.002 454C464.525 454 469.002 458.477 469.002 464Z" fill="#3D3D3D"/>
<path d="M525.002 464C525.002 469.523 520.525 474 515.002 474C509.479 474 505.002 469.523 505.002 464C505.002 458.477 509.479 454 515.002 454C520.525 454 525.002 458.477 525.002 464Z" fill="#3D3D3D"/>
<path d="M581.002 464C581.002 469.523 576.525 474 571.002 474C565.479 474 561.002 469.523 561.002 464C561.002 458.477 565.479 454 571.002 454C576.525 454 581.002 458.477 581.002 464Z" fill="#3D3D3D"/>
<path d="M637.002 464C637.002 469.523 632.525 474 627.002 474C621.479 474 617.002 469.523 617.002 464C617.002 458.477 621.479 454 627.002 454C632.525 454 637.002 458.477 637.002 464Z" fill="#3D3D3D"/>
<path d="M693.002 464C693.002 469.523 688.525 474 683.002 474C677.479 474 673.002 469.523 673.002 464C673.002 458.477 677.479 454 683.002 454C688.525 454 693.002 458.477 693.002 464Z" fill="#3D3D3D"/>
<path d="M749.002 464C749.002 469.523 744.525 474 739.002 474C733.479 474 729.002 469.523 729.002 464C729.002 458.477 733.479 454 739.002 454C744.525 454 749.002 458.477 749.002 464Z" fill="#3D3D3D"/>
<path d="M805.002 464C805.002 469.523 800.525 474 795.002 474C789.479 474 785.002 469.523 785.002 464C785.002 458.477 789.479 454 795.002 454C800.525 454 805.002 458.477 805.002 464Z" fill="#3D3D3D"/>
<path d="M861.002 464C861.002 469.523 856.525 474 851.002 474C845.479 474 841.002 469.523 841.002 464C841.002 458.477 845.479 454 851.002 454C856.525 454 861.002 458.477 861.002 464Z" fill="#3D3D3D"/>
<path d="M917.002 464C917.002 469.523 912.525 474 907.002 474C901.479 474 897.002 469.523 897.002 464C897.002 458.477 901.479 454 907.002 454C912.525 454 917.002 458.477 917.002 464Z" fill="#3D3D3D"/>
<path d="M973.002 464C973.002 469.523 968.525 474 963.002 474C957.479 474 953.002 469.523 953.002 464C953.002 458.477 957.479 454 963.002 454C968.525 454 973.002 458.477 973.002 464Z" fill="#3D3D3D"/>
<path d="M469.002 904C469.002 909.523 464.525 914 459.002 914C453.479 914 449.002 909.523 449.002 904C449.002 898.477 453.479 894 459.002 894C464.525 894 469.002 898.477 469.002 904Z" fill="#3D3D3D"/>
<path d="M525.002 904C525.002 909.523 520.525 914 515.002 914C509.479 914 505.002 909.523 505.002 904C505.002 898.477 509.479 894 515.002 894C520.525 894 525.002 898.477 525.002 904Z" fill="#3D3D3D"/>
<path d="M581.002 904C581.002 909.523 576.525 914 571.002 914C565.479 914 561.002 909.523 561.002 904C561.002 898.477 565.479 894 571.002 894C576.525 894 581.002 898.477 581.002 904Z" fill="#3D3D3D"/>
<path d="M637.002 904C637.002 909.523 632.525 914 627.002 914C621.479 914 617.002 909.523 617.002 904C617.002 898.477 621.479 894 627.002 894C632.525 894 637.002 898.477 637.002 904Z" fill="#3D3D3D"/>
<path d="M693.002 904C693.002 909.523 688.525 914 683.002 914C677.479 914 673.002 909.523 673.002 904C673.002 898.477 677.479 894 683.002 894C688.525 894 693.002 898.477 693.002 904Z" fill="#3D3D3D"/>
<path d="M749.002 904C749.002 909.523 744.525 914 739.002 914C733.479 914 729.002 909.523 729.002 904C729.002 898.477 733.479 894 739.002 894C744.525 894 749.002 898.477 749.002 904Z" fill="#3D3D3D"/>
<path d="M805.002 904C805.002 909.523 800.525 914 795.002 914C789.479 914 785.002 909.523 785.002 904C785.002 898.477 789.479 894 795.002 894C800.525 894 805.002 898.477 805.002 904Z" fill="#3D3D3D"/>
<path d="M861.002 904C861.002 909.523 856.525 914 851.002 914C845.479 914 841.002 909.523 841.002 904C841.002 898.477 845.479 894 851.002 894C856.525 894 861.002 898.477 861.002 904Z" fill="#3D3D3D"/>
<path d="M917.002 904C917.002 909.523 912.525 914 907.002 914C901.479 914 897.002 909.523 897.002 904C897.002 898.477 901.479 894 907.002 894C912.525 894 917.002 898.477 917.002 904Z" fill="#3D3D3D"/>
<path d="M973.002 904C973.002 909.523 968.525 914 963.002 914C957.479 914 953.002 909.523 953.002 904C953.002 898.477 957.479 894 963.002 894C968.525 894 973.002 898.477 973.002 904Z" fill="#3D3D3D"/>
<path d="M469.002 959C469.002 964.523 464.525 969 459.002 969C453.479 969 449.002 964.523 449.002 959C449.002 953.477 453.479 949 459.002 949C464.525 949 469.002 953.477 469.002 959Z" fill="#3D3D3D"/>
<path d="M525.002 959C525.002 964.523 520.525 969 515.002 969C509.479 969 505.002 964.523 505.002 959C505.002 953.477 509.479 949 515.002 949C520.525 949 525.002 953.477 525.002 959Z" fill="#3D3D3D"/>
<path d="M581.002 959C581.002 964.523 576.525 969 571.002 969C565.479 969 561.002 964.523 561.002 959C561.002 953.477 565.479 949 571.002 949C576.525 949 581.002 953.477 581.002 959Z" fill="#3D3D3D"/>
<path d="M637.002 959C637.002 964.523 632.525 969 627.002 969C621.479 969 617.002 964.523 617.002 959C617.002 953.477 621.479 949 627.002 949C632.525 949 637.002 953.477 637.002 959Z" fill="#3D3D3D"/>
<path d="M693.002 959C693.002 964.523 688.525 969 683.002 969C677.479 969 673.002 964.523 673.002 959C673.002 953.477 677.479 949 683.002 949C688.525 949 693.002 953.477 693.002 959Z" fill="#3D3D3D"/>
<path d="M749.002 959C749.002 964.523 744.525 969 739.002 969C733.479 969 729.002 964.523 729.002 959C729.002 953.477 733.479 949 739.002 949C744.525 949 749.002 953.477 749.002 959Z" fill="#3D3D3D"/>
<path d="M805.002 959C805.002 964.523 800.525 969 795.002 969C789.479 969 785.002 964.523 785.002 959C785.002 953.477 789.479 949 795.002 949C800.525 949 805.002 953.477 805.002 959Z" fill="#3D3D3D"/>
<path d="M861.002 959C861.002 964.523 856.525 969 851.002 969C845.479 969 841.002 964.523 841.002 959C841.002 953.477 845.479 949 851.002 949C856.525 949 861.002 953.477 861.002 959Z" fill="#3D3D3D"/>
<path d="M917.002 959C917.002 964.523 912.525 969 907.002 969C901.479 969 897.002 964.523 897.002 959C897.002 953.477 901.479 949 907.002 949C912.525 949 917.002 953.477 917.002 959Z" fill="#3D3D3D"/>
<path d="M973.002 959C973.002 964.523 968.525 969 963.002 969C957.479 969 953.002 964.523 953.002 959C953.002 953.477 957.479 949 963.002 949C968.525 949 973.002 953.477 973.002 959Z" fill="#3D3D3D"/>
<path d="M469.002 849C469.002 854.523 464.525 859 459.002 859C453.479 859 449.002 854.523 449.002 849C449.002 843.477 453.479 839 459.002 839C464.525 839 469.002 843.477 469.002 849Z" fill="#3D3D3D"/>
<path d="M525.002 849C525.002 854.523 520.525 859 515.002 859C509.479 859 505.002 854.523 505.002 849C505.002 843.477 509.479 839 515.002 839C520.525 839 525.002 843.477 525.002 849Z" fill="#3D3D3D"/>
<path d="M581.002 849C581.002 854.523 576.525 859 571.002 859C565.479 859 561.002 854.523 561.002 849C561.002 843.477 565.479 839 571.002 839C576.525 839 581.002 843.477 581.002 849Z" fill="#3D3D3D"/>
<path d="M637.002 849C637.002 854.523 632.525 859 627.002 859C621.479 859 617.002 854.523 617.002 849C617.002 843.477 621.479 839 627.002 839C632.525 839 637.002 843.477 637.002 849Z" fill="#3D3D3D"/>
<path d="M693.002 849C693.002 854.523 688.525 859 683.002 859C677.479 859 673.002 854.523 673.002 849C673.002 843.477 677.479 839 683.002 839C688.525 839 693.002 843.477 693.002 849Z" fill="#3D3D3D"/>
<path d="M749.002 849C749.002 854.523 744.525 859 739.002 859C733.479 859 729.002 854.523 729.002 849C729.002 843.477 733.479 839 739.002 839C744.525 839 749.002 843.477 749.002 849Z" fill="#3D3D3D"/>
<path d="M805.002 849C805.002 854.523 800.525 859 795.002 859C789.479 859 785.002 854.523 785.002 849C785.002 843.477 789.479 839 795.002 839C800.525 839 805.002 843.477 805.002 849Z" fill="#3D3D3D"/>
<path d="M861.002 849C861.002 854.523 856.525 859 851.002 859C845.479 859 841.002 854.523 841.002 849C841.002 843.477 845.479 839 851.002 839C856.525 839 861.002 843.477 861.002 849Z" fill="#3D3D3D"/>
<path d="M917.002 849C917.002 854.523 912.525 859 907.002 859C901.479 859 897.002 854.523 897.002 849C897.002 843.477 901.479 839 907.002 839C912.525 839 917.002 843.477 917.002 849Z" fill="#3D3D3D"/>
<path d="M973.002 849C973.002 854.523 968.525 859 963.002 859C957.479 859 953.002 854.523 953.002 849C953.002 843.477 957.479 839 963.002 839C968.525 839 973.002 843.477 973.002 849Z" fill="#3D3D3D"/>
<path d="M469.002 794C469.002 799.523 464.525 804 459.002 804C453.479 804 449.002 799.523 449.002 794C449.002 788.477 453.479 784 459.002 784C464.525 784 469.002 788.477 469.002 794Z" fill="#3D3D3D"/>
<path d="M525.002 794C525.002 799.523 520.525 804 515.002 804C509.479 804 505.002 799.523 505.002 794C505.002 788.477 509.479 784 515.002 784C520.525 784 525.002 788.477 525.002 794Z" fill="#3D3D3D"/>
<path d="M581.002 794C581.002 799.523 576.525 804 571.002 804C565.479 804 561.002 799.523 561.002 794C561.002 788.477 565.479 784 571.002 784C576.525 784 581.002 788.477 581.002 794Z" fill="#3D3D3D"/>
<path d="M637.002 794C637.002 799.523 632.525 804 627.002 804C621.479 804 617.002 799.523 617.002 794C617.002 788.477 621.479 784 627.002 784C632.525 784 637.002 788.477 637.002 794Z" fill="#3D3D3D"/>
<path d="M693.002 794C693.002 799.523 688.525 804 683.002 804C677.479 804 673.002 799.523 673.002 794C673.002 788.477 677.479 784 683.002 784C688.525 784 693.002 788.477 693.002 794Z" fill="#3D3D3D"/>
<path d="M749.002 794C749.002 799.523 744.525 804 739.002 804C733.479 804 729.002 799.523 729.002 794C729.002 788.477 733.479 784 739.002 784C744.525 784 749.002 788.477 749.002 794Z" fill="#3D3D3D"/>
<path d="M805.002 794C805.002 799.523 800.525 804 795.002 804C789.479 804 785.002 799.523 785.002 794C785.002 788.477 789.479 784 795.002 784C800.525 784 805.002 788.477 805.002 794Z" fill="#3D3D3D"/>
<path d="M861.002 794C861.002 799.523 856.525 804 851.002 804C845.479 804 841.002 799.523 841.002 794C841.002 788.477 845.479 784 851.002 784C856.525 784 861.002 788.477 861.002 794Z" fill="#3D3D3D"/>
<path d="M917.002 794C917.002 799.523 912.525 804 907.002 804C901.479 804 897.002 799.523 897.002 794C897.002 788.477 901.479 784 907.002 784C912.525 784 917.002 788.477 917.002 794Z" fill="#3D3D3D"/>
<path d="M973.002 794C973.002 799.523 968.525 804 963.002 804C957.479 804 953.002 799.523 953.002 794C953.002 788.477 957.479 784 963.002 784C968.525 784 973.002 788.477 973.002 794Z" fill="#3D3D3D"/>
<path d="M469.002 739C469.002 744.523 464.525 749 459.002 749C453.479 749 449.002 744.523 449.002 739C449.002 733.477 453.479 729 459.002 729C464.525 729 469.002 733.477 469.002 739Z" fill="#3D3D3D"/>
<path d="M525.002 739C525.002 744.523 520.525 749 515.002 749C509.479 749 505.002 744.523 505.002 739C505.002 733.477 509.479 729 515.002 729C520.525 729 525.002 733.477 525.002 739Z" fill="#3D3D3D"/>
<path d="M581.002 739C581.002 744.523 576.525 749 571.002 749C565.479 749 561.002 744.523 561.002 739C561.002 733.477 565.479 729 571.002 729C576.525 729 581.002 733.477 581.002 739Z" fill="#3D3D3D"/>
<path d="M637.002 739C637.002 744.523 632.525 749 627.002 749C621.479 749 617.002 744.523 617.002 739C617.002 733.477 621.479 729 627.002 729C632.525 729 637.002 733.477 637.002 739Z" fill="#3D3D3D"/>
<path d="M693.002 739C693.002 744.523 688.525 749 683.002 749C677.479 749 673.002 744.523 673.002 739C673.002 733.477 677.479 729 683.002 729C688.525 729 693.002 733.477 693.002 739Z" fill="#3D3D3D"/>
<path d="M749.002 739C749.002 744.523 744.525 749 739.002 749C733.479 749 729.002 744.523 729.002 739C729.002 733.477 733.479 729 739.002 729C744.525 729 749.002 733.477 749.002 739Z" fill="#3D3D3D"/>
<path d="M805.002 739C805.002 744.523 800.525 749 795.002 749C789.479 749 785.002 744.523 785.002 739C785.002 733.477 789.479 729 795.002 729C800.525 729 805.002 733.477 805.002 739Z" fill="#3D3D3D"/>
<path d="M861.002 739C861.002 744.523 856.525 749 851.002 749C845.479 749 841.002 744.523 841.002 739C841.002 733.477 845.479 729 851.002 729C856.525 729 861.002 733.477 861.002 739Z" fill="#3D3D3D"/>
<path d="M917.002 739C917.002 744.523 912.525 749 907.002 749C901.479 749 897.002 744.523 897.002 739C897.002 733.477 901.479 729 907.002 729C912.525 729 917.002 733.477 917.002 739Z" fill="#3D3D3D"/>
<path d="M973.002 739C973.002 744.523 968.525 749 963.002 749C957.479 749 953.002 744.523 953.002 739C953.002 733.477 957.479 729 963.002 729C968.525 729 973.002 733.477 973.002 739Z" fill="#3D3D3D"/>
<path d="M469.002 574C469.002 579.523 464.525 584 459.002 584C453.479 584 449.002 579.523 449.002 574C449.002 568.477 453.479 564 459.002 564C464.525 564 469.002 568.477 469.002 574Z" fill="#3D3D3D"/>
<path d="M525.002 574C525.002 579.523 520.525 584 515.002 584C509.479 584 505.002 579.523 505.002 574C505.002 568.477 509.479 564 515.002 564C520.525 564 525.002 568.477 525.002 574Z" fill="#3D3D3D"/>
<path d="M581.002 574C581.002 579.523 576.525 584 571.002 584C565.479 584 561.002 579.523 561.002 574C561.002 568.477 565.479 564 571.002 564C576.525 564 581.002 568.477 581.002 574Z" fill="#3D3D3D"/>
<path d="M637.002 574C637.002 579.523 632.525 584 627.002 584C621.479 584 617.002 579.523 617.002 574C617.002 568.477 621.479 564 627.002 564C632.525 564 637.002 568.477 637.002 574Z" fill="#3D3D3D"/>
<path d="M693.002 574C693.002 579.523 688.525 584 683.002 584C677.479 584 673.002 579.523 673.002 574C673.002 568.477 677.479 564 683.002 564C688.525 564 693.002 568.477 693.002 574Z" fill="#3D3D3D"/>
<path d="M749.002 574C749.002 579.523 744.525 584 739.002 584C733.479 584 729.002 579.523 729.002 574C729.002 568.477 733.479 564 739.002 564C744.525 564 749.002 568.477 749.002 574Z" fill="#3D3D3D"/>
<path d="M805.002 574C805.002 579.523 800.525 584 795.002 584C789.479 584 785.002 579.523 785.002 574C785.002 568.477 789.479 564 795.002 564C800.525 564 805.002 568.477 805.002 574Z" fill="#3D3D3D"/>
<path d="M861.002 574C861.002 579.523 856.525 584 851.002 584C845.479 584 841.002 579.523 841.002 574C841.002 568.477 845.479 564 851.002 564C856.525 564 861.002 568.477 861.002 574Z" fill="#3D3D3D"/>
<path d="M917.002 574C917.002 579.523 912.525 584 907.002 584C901.479 584 897.002 579.523 897.002 574C897.002 568.477 901.479 564 907.002 564C912.525 564 917.002 568.477 917.002 574Z" fill="#3D3D3D"/>
<path d="M973.002 574C973.002 579.523 968.525 584 963.002 584C957.479 584 953.002 579.523 953.002 574C953.002 568.477 957.479 564 963.002 564C968.525 564 973.002 568.477 973.002 574Z" fill="#3D3D3D"/>
<path d="M469.002 629C469.002 634.523 464.525 639 459.002 639C453.479 639 449.002 634.523 449.002 629C449.002 623.477 453.479 619 459.002 619C464.525 619 469.002 623.477 469.002 629Z" fill="#3D3D3D"/>
<path d="M525.002 629C525.002 634.523 520.525 639 515.002 639C509.479 639 505.002 634.523 505.002 629C505.002 623.477 509.479 619 515.002 619C520.525 619 525.002 623.477 525.002 629Z" fill="#3D3D3D"/>
<path d="M581.002 629C581.002 634.523 576.525 639 571.002 639C565.479 639 561.002 634.523 561.002 629C561.002 623.477 565.479 619 571.002 619C576.525 619 581.002 623.477 581.002 629Z" fill="#3D3D3D"/>
<path d="M637.002 629C637.002 634.523 632.525 639 627.002 639C621.479 639 617.002 634.523 617.002 629C617.002 623.477 621.479 619 627.002 619C632.525 619 637.002 623.477 637.002 629Z" fill="#3D3D3D"/>
<path d="M693.002 629C693.002 634.523 688.525 639 683.002 639C677.479 639 673.002 634.523 673.002 629C673.002 623.477 677.479 619 683.002 619C688.525 619 693.002 623.477 693.002 629Z" fill="#3D3D3D"/>
<path d="M749.002 629C749.002 634.523 744.525 639 739.002 639C733.479 639 729.002 634.523 729.002 629C729.002 623.477 733.479 619 739.002 619C744.525 619 749.002 623.477 749.002 629Z" fill="#3D3D3D"/>
<path d="M805.002 629C805.002 634.523 800.525 639 795.002 639C789.479 639 785.002 634.523 785.002 629C785.002 623.477 789.479 619 795.002 619C800.525 619 805.002 623.477 805.002 629Z" fill="#3D3D3D"/>
<path d="M861.002 629C861.002 634.523 856.525 639 851.002 639C845.479 639 841.002 634.523 841.002 629C841.002 623.477 845.479 619 851.002 619C856.525 619 861.002 623.477 861.002 629Z" fill="#3D3D3D"/>
<path d="M917.002 629C917.002 634.523 912.525 639 907.002 639C901.479 639 897.002 634.523 897.002 629C897.002 623.477 901.479 619 907.002 619C912.525 619 917.002 623.477 917.002 629Z" fill="#3D3D3D"/>
<path d="M973.002 629C973.002 634.523 968.525 639 963.002 639C957.479 639 953.002 634.523 953.002 629C953.002 623.477 957.479 619 963.002 619C968.525 619 973.002 623.477 973.002 629Z" fill="#3D3D3D"/>
<path d="M469.002 684C469.002 689.523 464.525 694 459.002 694C453.479 694 449.002 689.523 449.002 684C449.002 678.477 453.479 674 459.002 674C464.525 674 469.002 678.477 469.002 684Z" fill="#3D3D3D"/>
<path d="M525.002 684C525.002 689.523 520.525 694 515.002 694C509.479 694 505.002 689.523 505.002 684C505.002 678.477 509.479 674 515.002 674C520.525 674 525.002 678.477 525.002 684Z" fill="#3D3D3D"/>
<path d="M581.002 684C581.002 689.523 576.525 694 571.002 694C565.479 694 561.002 689.523 561.002 684C561.002 678.477 565.479 674 571.002 674C576.525 674 581.002 678.477 581.002 684Z" fill="#3D3D3D"/>
<path d="M637.002 684C637.002 689.523 632.525 694 627.002 694C621.479 694 617.002 689.523 617.002 684C617.002 678.477 621.479 674 627.002 674C632.525 674 637.002 678.477 637.002 684Z" fill="#3D3D3D"/>
<path d="M693.002 684C693.002 689.523 688.525 694 683.002 694C677.479 694 673.002 689.523 673.002 684C673.002 678.477 677.479 674 683.002 674C688.525 674 693.002 678.477 693.002 684Z" fill="#3D3D3D"/>
<path d="M749.002 684C749.002 689.523 744.525 694 739.002 694C733.479 694 729.002 689.523 729.002 684C729.002 678.477 733.479 674 739.002 674C744.525 674 749.002 678.477 749.002 684Z" fill="#3D3D3D"/>
<path d="M805.002 684C805.002 689.523 800.525 694 795.002 694C789.479 694 785.002 689.523 785.002 684C785.002 678.477 789.479 674 795.002 674C800.525 674 805.002 678.477 805.002 684Z" fill="#3D3D3D"/>
<path d="M861.002 684C861.002 689.523 856.525 694 851.002 694C845.479 694 841.002 689.523 841.002 684C841.002 678.477 845.479 674 851.002 674C856.525 674 861.002 678.477 861.002 684Z" fill="#3D3D3D"/>
<path d="M917.002 684C917.002 689.523 912.525 694 907.002 694C901.479 694 897.002 689.523 897.002 684C897.002 678.477 901.479 674 907.002 674C912.525 674 917.002 678.477 917.002 684Z" fill="#3D3D3D"/>
<path d="M973.002 684C973.002 689.523 968.525 694 963.002 694C957.479 694 953.002 689.523 953.002 684C953.002 678.477 957.479 674 963.002 674C968.525 674 973.002 678.477 973.002 684Z" fill="#3D3D3D"/>
<path d="M469.002 519C469.002 524.523 464.525 529 459.002 529C453.479 529 449.002 524.523 449.002 519C449.002 513.477 453.479 509 459.002 509C464.525 509 469.002 513.477 469.002 519Z" fill="#3D3D3D"/>
<path d="M525.002 519C525.002 524.523 520.525 529 515.002 529C509.479 529 505.002 524.523 505.002 519C505.002 513.477 509.479 509 515.002 509C520.525 509 525.002 513.477 525.002 519Z" fill="#3D3D3D"/>
<path d="M581.002 519C581.002 524.523 576.525 529 571.002 529C565.479 529 561.002 524.523 561.002 519C561.002 513.477 565.479 509 571.002 509C576.525 509 581.002 513.477 581.002 519Z" fill="#3D3D3D"/>
<path d="M637.002 519C637.002 524.523 632.525 529 627.002 529C621.479 529 617.002 524.523 617.002 519C617.002 513.477 621.479 509 627.002 509C632.525 509 637.002 513.477 637.002 519Z" fill="#3D3D3D"/>
<path d="M693.002 519C693.002 524.523 688.525 529 683.002 529C677.479 529 673.002 524.523 673.002 519C673.002 513.477 677.479 509 683.002 509C688.525 509 693.002 513.477 693.002 519Z" fill="#3D3D3D"/>
<path d="M749.002 519C749.002 524.523 744.525 529 739.002 529C733.479 529 729.002 524.523 729.002 519C729.002 513.477 733.479 509 739.002 509C744.525 509 749.002 513.477 749.002 519Z" fill="#3D3D3D"/>
<path d="M805.002 519C805.002 524.523 800.525 529 795.002 529C789.479 529 785.002 524.523 785.002 519C785.002 513.477 789.479 509 795.002 509C800.525 509 805.002 513.477 805.002 519Z" fill="#3D3D3D"/>
<path d="M861.002 519C861.002 524.523 856.525 529 851.002 529C845.479 529 841.002 524.523 841.002 519C841.002 513.477 845.479 509 851.002 509C856.525 509 861.002 513.477 861.002 519Z" fill="#3D3D3D"/>
<path d="M917.002 519C917.002 524.523 912.525 529 907.002 529C901.479 529 897.002 524.523 897.002 519C897.002 513.477 901.479 509 907.002 509C912.525 509 917.002 513.477 917.002 519Z" fill="#3D3D3D"/>
<path d="M973.002 519C973.002 524.523 968.525 529 963.002 529C957.479 529 953.002 524.523 953.002 519C953.002 513.477 957.479 509 963.002 509C968.525 509 973.002 513.477 973.002 519Z" fill="#3D3D3D"/>
</g>
<path id="paths_static" fill-rule="evenodd" clip-rule="evenodd" d="M502.502 387V1H505.502V387H502.502ZM708.502 387V1H711.502V387H708.502ZM819.502 387V1H822.502V387H819.502ZM929.502 387V1H932.502V387H929.502ZM597.002 223.5C592.86 223.5 589.502 226.858 589.502 231C589.502 235.142 592.86 238.5 597.002 238.5C601.144 238.5 604.502 235.142 604.502 231C604.502 226.858 601.144 223.5 597.002 223.5ZM586.502 231C586.502 225.201 591.203 220.5 597.002 220.5C602.801 220.5 607.502 225.201 607.502 231C607.502 236.29 603.59 240.666 598.502 241.394V387H595.502V241.394C590.414 240.666 586.502 236.29 586.502 231ZM387.004 498.5L0.00389607 499.003L0 496.003L387 495.5L387.004 498.5ZM1422 499H1035V496H1422V499ZM1236 621.5C1230.76 621.5 1226.5 625.753 1226.5 631C1226.5 636.247 1230.76 640.5 1236 640.5C1241.25 640.5 1245.5 636.247 1245.5 631C1245.5 625.753 1241.25 621.5 1236 621.5ZM1237.5 643.411C1243.7 642.67 1248.5 637.396 1248.5 631C1248.5 624.096 1242.91 618.5 1236 618.5C1229.1 618.5 1223.5 624.096 1223.5 631C1223.5 637.396 1228.31 642.67 1234.5 643.411V813.5H1035V816.5H1237.5V643.411ZM1306 622.5C1301.31 622.5 1297.5 626.306 1297.5 631C1297.5 635.694 1301.31 639.5 1306 639.5C1310.7 639.5 1314.5 635.694 1314.5 631C1314.5 626.306 1310.7 622.5 1306 622.5ZM1294.5 631C1294.5 624.649 1299.65 619.5 1306 619.5C1312.35 619.5 1317.5 624.649 1317.5 631C1317.5 636.843 1313.14 641.668 1307.5 642.403V926H1035V923H1304.5V642.403C1298.86 641.668 1294.5 636.843 1294.5 631ZM387.002 926.5H0.00194804V923.5H387.002V926.5ZM501.502 1122.5V1035H504.502V1125.5H373.396C372.668 1130.59 368.292 1134.5 363.002 1134.5C357.203 1134.5 352.502 1129.8 352.502 1124C352.502 1118.2 357.203 1113.5 363.002 1113.5C368.292 1113.5 372.668 1117.41 373.396 1122.5H501.502ZM370.352 1122.5C369.657 1119.08 366.63 1116.5 363.002 1116.5C358.86 1116.5 355.502 1119.86 355.502 1124C355.502 1128.14 358.86 1131.5 363.002 1131.5C366.63 1131.5 369.657 1128.92 370.352 1125.5L370.352 1122.5ZM595.502 1164.61L595.502 1035H598.502L598.502 1164.61C603.59 1165.33 607.502 1169.71 607.502 1175C607.502 1180.8 602.801 1185.5 597.002 1185.5C591.203 1185.5 586.502 1180.8 586.502 1175C586.502 1169.71 590.414 1165.33 595.502 1164.61ZM708.502 1420.5V1037.5H711.502V1420.5H708.502ZM819.502 1420.5V1037.5H822.502V1420.5H819.502ZM929.502 1420.5V1037.5H932.502V1420.5H929.502ZM597.002 1167.5C592.86 1167.5 589.502 1170.86 589.502 1175C589.502 1179.14 592.86 1182.5 597.002 1182.5C601.144 1182.5 604.502 1179.14 604.502 1175C604.502 1170.86 601.144 1167.5 597.002 1167.5Z" fill="#595959"/>
<g id="paths">
<path id="Ellipse 5 (Stroke)" fill-rule="evenodd" clip-rule="evenodd" d="M597.002 223.5C592.86 223.5 589.502 226.858 589.502 231C589.502 235.142 592.86 238.5 597.002 238.5C601.144 238.5 604.502 235.142 604.502 231C604.502 226.858 601.144 223.5 597.002 223.5ZM586.502 231C586.502 225.201 591.203 220.5 597.002 220.5C602.801 220.5 607.502 225.201 607.502 231C607.502 236.799 602.801 241.5 597.002 241.5C591.203 241.5 586.502 236.799 586.502 231Z" fill="white"/>
<path id="Line 1 (Stroke)" fill-rule="evenodd" clip-rule="evenodd" d="M1237.5 640.5V816.5H1035V813.5H1234.5V640.5H1237.5Z" fill="white"/>
<path id="Line 3 (Stroke)" fill-rule="evenodd" clip-rule="evenodd" d="M1422 499H1035V496H1422V499Z" fill="white"/>
<path id="Line 4 (Stroke)" fill-rule="evenodd" clip-rule="evenodd" d="M387.004 498.5L0.0038961 499.003L0 496.003L387 495.5L387.004 498.5Z" fill="white"/>
<path id="Line 5 (Stroke)" fill-rule="evenodd" clip-rule="evenodd" d="M387.002 926.5H0.00195312V923.5H387.002V926.5Z" fill="white"/>
<path id="Line 2 (Stroke)" fill-rule="evenodd" clip-rule="evenodd" d="M1307.5 640V926H1035V923H1304.5V640H1307.5Z" fill="white"/>
<path id="Ellipse 1 (Stroke)" fill-rule="evenodd" clip-rule="evenodd" d="M1236 621.5C1230.76 621.5 1226.5 625.753 1226.5 631C1226.5 636.247 1230.76 640.5 1236 640.5C1241.25 640.5 1245.5 636.247 1245.5 631C1245.5 625.753 1241.25 621.5 1236 621.5ZM1223.5 631C1223.5 624.096 1229.1 618.5 1236 618.5C1242.91 618.5 1248.5 624.096 1248.5 631C1248.5 637.904 1242.91 643.5 1236 643.5C1229.1 643.5 1223.5 637.904 1223.5 631Z" fill="white"/>
<path id="Ellipse 2 (Stroke)" fill-rule="evenodd" clip-rule="evenodd" d="M1306 622.5C1301.31 622.5 1297.5 626.306 1297.5 631C1297.5 635.694 1301.31 639.5 1306 639.5C1310.7 639.5 1314.5 635.694 1314.5 631C1314.5 626.306 1310.7 622.5 1306 622.5ZM1294.5 631C1294.5 624.649 1299.65 619.5 1306 619.5C1312.35 619.5 1317.5 624.649 1317.5 631C1317.5 637.351 1312.35 642.5 1306 642.5C1299.65 642.5 1294.5 637.351 1294.5 631Z" fill="white"/>
<path id="Vector 1 (Stroke)" fill-rule="evenodd" clip-rule="evenodd" d="M929.502 1420.5V1037.5H932.502V1420.5H929.502Z" fill="white"/>
<path id="Vector 6 (Stroke)" fill-rule="evenodd" clip-rule="evenodd" d="M929.502 387V1H932.502V387H929.502Z" fill="white"/>
<path id="Vector 7 (Stroke)" fill-rule="evenodd" clip-rule="evenodd" d="M819.502 387V1H822.502V387H819.502Z" fill="white"/>
<path id="Vector 8 (Stroke)" fill-rule="evenodd" clip-rule="evenodd" d="M708.502 387V1H711.502V387H708.502Z" fill="white"/>
<path id="Vector 9 (Stroke)" fill-rule="evenodd" clip-rule="evenodd" d="M502.502 387V1H505.502V387H502.502Z" fill="white"/>
<path id="Vector 10 (Stroke)" fill-rule="evenodd" clip-rule="evenodd" d="M595.502 387L595.502 239L598.502 239L598.502 387L595.502 387Z" fill="white"/>
<path id="Vector 2 (Stroke)" fill-rule="evenodd" clip-rule="evenodd" d="M819.502 1420.5V1037.5H822.502V1420.5H819.502Z" fill="white"/>
<path id="Vector 3 (Stroke)" fill-rule="evenodd" clip-rule="evenodd" d="M708.502 1420.5V1037.5H711.502V1420.5H708.502Z" fill="white"/>
<path id="Vector 4 (Stroke)" fill-rule="evenodd" clip-rule="evenodd" d="M595.502 1166L595.502 1035L598.502 1035L598.502 1166L595.502 1166Z" fill="white"/>
<path id="Ellipse 3 (Stroke)" fill-rule="evenodd" clip-rule="evenodd" d="M597.002 1167.5C592.86 1167.5 589.502 1170.86 589.502 1175C589.502 1179.14 592.86 1182.5 597.002 1182.5C601.144 1182.5 604.502 1179.14 604.502 1175C604.502 1170.86 601.144 1167.5 597.002 1167.5ZM586.502 1175C586.502 1169.2 591.203 1164.5 597.002 1164.5C602.801 1164.5 607.502 1169.2 607.502 1175C607.502 1180.8 602.801 1185.5 597.002 1185.5C591.203 1185.5 586.502 1180.8 586.502 1175Z" fill="white"/>
<path id="Ellipse 4 (Stroke)" fill-rule="evenodd" clip-rule="evenodd" d="M363.002 1116.5C358.86 1116.5 355.502 1119.86 355.502 1124C355.502 1128.14 358.86 1131.5 363.002 1131.5C367.144 1131.5 370.502 1128.14 370.502 1124C370.502 1119.86 367.144 1116.5 363.002 1116.5ZM352.502 1124C352.502 1118.2 357.203 1113.5 363.002 1113.5C368.801 1113.5 373.502 1118.2 373.502 1124C373.502 1129.8 368.801 1134.5 363.002 1134.5C357.203 1134.5 352.502 1129.8 352.502 1124Z" fill="white"/>
<path id="Vector 5 (Stroke)" fill-rule="evenodd" clip-rule="evenodd" d="M501.502 1122.5V1035H504.502V1125.5H371.002V1122.5H501.502Z" fill="white"/>
</g>
<g id="Processor">
<g id="connectors">
<g id="cons">
<path d="M493.002 1008H514.002V1035H493.002V1008Z" fill="#3B3939"/>
<path d="M587.002 1008H608.002V1035H587.002V1008Z" fill="#3B3939"/>
<path d="M699.002 1008H720.002V1035H699.002V1008Z" fill="#3B3939"/>
<path d="M811.002 1008H832.002V1035H811.002V1008Z" fill="#3B3939"/>
<path d="M921.002 1008H942.002V1035H921.002V1008Z" fill="#3B3939"/>
<path d="M387.002 936L387.002 915H414.002V936H387.002Z" fill="#3B3939"/>
<path d="M387.002 508L387.002 487H414.002V508H387.002Z" fill="#3B3939"/>
<path d="M1035 487V508H1008V487H1035Z" fill="#3B3939"/>
<path d="M1035 805V826H1008V805H1035Z" fill="#3B3939"/>
<path d="M1035 915V936H1008V915H1035Z" fill="#3B3939"/>
<path d="M493.002 387H514.002V414H493.002V387Z" fill="#3B3939"/>
<path d="M587.002 387H608.002V414H587.002V387Z" fill="#3B3939"/>
<path d="M699.002 387H720.002V414H699.002V387Z" fill="#3B3939"/>
<path d="M811.002 387H832.002V414H811.002V387Z" fill="#3B3939"/>
<path d="M921.002 387H942.002V414H921.002V387Z" fill="#3B3939"/>
</g>
<g id="lights">
<path fill-rule="evenodd" clip-rule="evenodd" d="M511.002 1011H496.002V1032H511.002V1011ZM493.002 1008V1035H514.002V1008H493.002Z" fill="#DBDBDB"/>
<path fill-rule="evenodd" clip-rule="evenodd" d="M605.002 1011H590.002V1032H605.002V1011ZM587.002 1008V1035H608.002V1008H587.002Z" fill="#DBDBDB"/>
<path fill-rule="evenodd" clip-rule="evenodd" d="M717.002 1011H702.002V1032H717.002V1011ZM699.002 1008V1035H720.002V1008H699.002Z" fill="#DBDBDB"/>
<path fill-rule="evenodd" clip-rule="evenodd" d="M829.002 1011H814.002V1032H829.002V1011ZM811.002 1008V1035H832.002V1008H811.002Z" fill="#DBDBDB"/>
<path fill-rule="evenodd" clip-rule="evenodd" d="M939.002 1011H924.002V1032H939.002V1011ZM921.002 1008V1035H942.002V1008H921.002Z" fill="#DBDBDB"/>
<path fill-rule="evenodd" clip-rule="evenodd" d="M390.002 918L390.002 933H411.002V918H390.002ZM387.002 936H414.002V915H387.002L387.002 936Z" fill="#DBDBDB"/>
<path fill-rule="evenodd" clip-rule="evenodd" d="M390.002 490L390.002 505H411.002V490H390.002ZM387.002 508H414.002V487H387.002L387.002 508Z" fill="#DBDBDB"/>
<path fill-rule="evenodd" clip-rule="evenodd" d="M1032 505V490H1011V505H1032ZM1035 487H1008V508H1035V487Z" fill="#DBDBDB"/>
<path fill-rule="evenodd" clip-rule="evenodd" d="M1032 823V808H1011V823H1032ZM1035 805H1008V826H1035V805Z" fill="#DBDBDB"/>
<path fill-rule="evenodd" clip-rule="evenodd" d="M1032 933V918H1011V933H1032ZM1035 915H1008V936H1035V915Z" fill="#DBDBDB"/>
<path fill-rule="evenodd" clip-rule="evenodd" d="M511.002 390H496.002V411H511.002V390ZM493.002 387V414H514.002V387H493.002Z" fill="#DBDBDB"/>
<path fill-rule="evenodd" clip-rule="evenodd" d="M605.002 390H590.002V411H605.002V390ZM587.002 387V414H608.002V387H587.002Z" fill="#DBDBDB"/>
<path fill-rule="evenodd" clip-rule="evenodd" d="M717.002 390H702.002V411H717.002V390ZM699.002 387V414H720.002V387H699.002Z" fill="#DBDBDB"/>
<path fill-rule="evenodd" clip-rule="evenodd" d="M829.002 390H814.002V411H829.002V390ZM811.002 387V414H832.002V387H811.002Z" fill="#DBDBDB"/>
<path fill-rule="evenodd" clip-rule="evenodd" d="M939.002 390H924.002V411H939.002V390ZM921.002 387V414H942.002V387H921.002Z" fill="#DBDBDB"/>
</g>
</g>
<g id="circuit" filter="url(#filter0_d_57_282)">
<path d="M411.002 411H1011V1011H411.002V411Z" fill="url(#paint0_linear_57_282)"/>
</g>
<path id="surface" d="M427.002 428H994.002V995H427.002V428Z" fill="#101010"/>
<g id="logo">
<path d="M575.252 640.75H563.002C568.602 642.35 577.752 646.667 581.627 648.625C581.427 647.025 577.294 642.708 575.252 640.75Z" fill="#7B7B7B"/>
<path d="M583.502 651.25L566.002 652.75C578.702 654.25 584.71 657.625 586.127 659.125L587.752 658.375C586.952 656.075 584.585 652.667 583.502 651.25Z" fill="#7B7B7B"/>
<path d="M605.002 657.875L602.627 654C611.927 649.9 623.002 651.208 627.377 652.375C612.502 654.375 609.377 660.5 609.127 660C608.927 659.6 606.294 658.417 605.002 657.875Z" fill="#7B7B7B"/>
<path d="M601.252 652.75L598.377 649.25C607.277 635.15 619.335 626.292 624.252 623.625C614.452 635.425 609.252 646.958 607.877 651.25C604.877 651.75 602.21 652.458 601.252 652.75Z" fill="#7B7B7B"/>
<path d="M609.752 650.625L611.002 646.875C617.102 642.875 622.794 643.458 624.877 644.25C618.277 645.15 612.044 648.875 609.752 650.625Z" fill="#7B7B7B"/>
<path d="M612.877 643.625L616.377 636.5C620.677 632.4 626.502 631.125 628.877 631C624.577 632.7 616.419 640.125 612.877 643.625Z" fill="#7B7B7B"/>
<path d="M594.752 630C593.652 627.8 589.627 624.5 587.752 623.125L589.752 599C597.052 610.9 599.46 620.042 599.752 623.125C598.952 623.825 596.085 628 594.752 630Z" fill="#7B7B7B"/>
<path d="M601.252 642C600.852 639.4 597.752 634.167 596.252 631.875C605.252 614.375 612.127 610.625 618.252 607C610.852 618.4 607.002 631.667 606.002 636.875L601.252 642Z" fill="#7B7B7B"/>
<path d="M589.252 657.875C585.952 649.275 572.46 634.542 566.127 628.25C582.727 634.75 597.71 650.208 603.127 657.125C596.927 655.825 591.294 657.083 589.252 657.875Z" fill="#7B7B7B"/>
<path d="M597.002 647.625L586.002 638.5C583.402 628.1 572.585 618.417 567.502 614.875C587.002 619.075 597.877 635.458 600.877 643.125L597.002 647.625Z" fill="#7B7B7B"/>
<path d="M599.571 659.491C598.723 659.414 597.866 659.375 597.002 659.375C596.051 659.375 595.109 659.423 594.177 659.516L596.881 662.182L599.571 659.491Z" fill="#7B7B7B"/>
<path d="M589.646 660.346C584.866 661.627 580.448 664.132 576.611 667.586L584.097 674.965L594.214 664.849L589.646 660.346Z" fill="#7B7B7B"/>
<path d="M573.938 670.248C570.752 673.749 568.078 677.964 566.074 682.693L571.259 687.804L581.43 677.632L573.938 670.248Z" fill="#7B7B7B"/>
<path d="M564.623 686.559C563.573 689.757 562.816 693.145 562.393 696.67L568.592 690.471L564.623 686.559Z" fill="#7B7B7B"/>
<path d="M562.003 703.766C562.002 703.595 562.002 703.422 562.002 703.25C562.002 702.962 562.004 702.675 562.009 702.388L571.278 693.119L581.559 703.253L571.593 713.219L562.003 703.766Z" fill="#7B7B7B"/>
<path d="M562.213 709.269C562.504 713.307 563.101 717.169 564.034 720.778L568.926 715.886L562.213 709.269Z" fill="#7B7B7B"/>
<path d="M565.277 724.87C567.006 729.778 569.458 734.096 572.722 737.59L581.768 728.545L571.612 718.534L565.277 724.87Z" fill="#7B7B7B"/>
<path d="M575.472 740.175C579.261 743.294 583.927 745.485 589.567 746.495L594.736 741.327L584.454 731.192L575.472 740.175Z" fill="#7B7B7B"/>
<path d="M594.347 747.05C595.212 747.1 596.097 747.125 597.002 747.125C598.202 747.125 599.366 747.084 600.494 747.003L597.422 743.975L594.347 747.05Z" fill="#7B7B7B"/>
<path d="M605.248 746.393C610.801 745.34 615.34 743.184 618.997 740.156L610.055 731.342L600.089 741.308L605.248 746.393Z" fill="#7B7B7B"/>
<path d="M621.733 737.557C625.009 733.996 627.398 729.583 629.042 724.564L622.893 718.503L612.722 728.675L621.733 737.557Z" fill="#7B7B7B"/>
<path d="M630.204 720.414C631.008 717.011 631.523 713.388 631.787 709.609L625.56 715.836L630.204 720.414Z" fill="#7B7B7B"/>
<path d="M631.99 702.085C631.998 702.472 632.002 702.86 632.002 703.25C632.002 703.522 632.001 703.793 631.999 704.064L622.874 713.188L612.593 703.054L622.71 692.937L631.99 702.085Z" fill="#7B7B7B"/>
<path d="M631.575 696.38C631.136 692.878 630.366 689.514 629.308 686.339L625.377 690.27L631.575 696.38Z" fill="#7B7B7B"/>
<path d="M627.837 682.475C625.827 677.795 623.158 673.625 619.986 670.16L612.535 677.612L622.69 687.622L627.837 682.475Z" fill="#7B7B7B"/>
<path d="M617.305 667.507L609.849 674.964L599.567 664.829L604.115 660.282C608.951 661.533 613.423 664.036 617.305 667.507Z" fill="#7B7B7B"/>
<path d="M574.279 715.867L584.435 725.878L594.401 715.911L584.246 705.901L574.279 715.867Z" fill="#7B7B7B"/>
<path d="M587.121 728.525L597.403 738.66L607.369 728.694L597.087 718.559L587.121 728.525Z" fill="#7B7B7B"/>
<path d="M620.207 715.855L610.036 726.027L599.754 715.892L609.926 705.721L620.207 715.855Z" fill="#7B7B7B"/>
<path d="M607.24 703.073L597.068 713.244L586.913 703.234L597.084 693.063L607.24 703.073Z" fill="#7B7B7B"/>
<path d="M594.398 690.415L584.226 700.586L573.945 690.452L584.116 680.28L594.398 690.415Z" fill="#7B7B7B"/>
<path d="M609.868 680.279L620.023 690.289L609.907 700.406L599.751 690.396L609.868 680.279Z" fill="#7B7B7B"/>
<path d="M597.065 687.748L607.182 677.631L596.9 667.496L586.783 677.613L597.065 687.748Z" fill="#7B7B7B"/>
<path d="M779.469 780.545C779.469 786.097 778.417 790.82 776.312 794.714C774.224 798.609 771.374 801.584 767.761 803.638C764.165 805.677 760.121 806.696 755.63 806.696C751.106 806.696 747.046 805.669 743.45 803.614C739.854 801.559 737.012 798.584 734.924 794.69C732.836 790.795 731.792 786.08 731.792 780.545C731.792 774.994 732.836 770.271 734.924 766.376C737.012 762.482 739.854 759.516 743.45 757.477C747.046 755.422 751.106 754.395 755.63 754.395C760.121 754.395 764.165 755.422 767.761 757.477C771.374 759.516 774.224 762.482 776.312 766.376C778.417 770.271 779.469 774.994 779.469 780.545ZM768.556 780.545C768.556 776.949 768.018 773.917 766.941 771.447C765.88 768.978 764.38 767.106 762.441 765.83C760.502 764.554 758.232 763.915 755.63 763.915C753.029 763.915 750.758 764.554 748.819 765.83C746.88 767.106 745.372 768.978 744.295 771.447C743.234 773.917 742.704 776.949 742.704 780.545C742.704 784.142 743.234 787.174 744.295 789.643C745.372 792.113 746.88 793.985 748.819 795.261C750.758 796.537 753.029 797.175 755.63 797.175C758.232 797.175 760.502 796.537 762.441 795.261C764.38 793.985 765.88 792.113 766.941 789.643C768.018 787.174 768.556 784.142 768.556 780.545Z" fill="#7B7B7B"/>
<path d="M686.749 806V755.091H706.834C710.679 755.091 713.96 755.779 716.678 757.154C719.412 758.513 721.492 760.444 722.917 762.946C724.359 765.432 725.08 768.357 725.08 771.721C725.08 775.102 724.351 778.01 722.892 780.446C721.434 782.866 719.321 784.722 716.554 786.014C713.803 787.307 710.472 787.953 706.561 787.953H693.113V779.303H704.821C706.876 779.303 708.583 779.021 709.941 778.457C711.3 777.894 712.311 777.049 712.974 775.922C713.654 774.795 713.993 773.395 713.993 771.721C713.993 770.031 713.654 768.605 712.974 767.445C712.311 766.285 711.292 765.407 709.917 764.81C708.558 764.197 706.842 763.891 704.771 763.891H697.512V806H686.749ZM714.242 782.832L726.895 806H715.012L702.633 782.832H714.242Z" fill="#7B7B7B"/>
<path d="M641.427 806V755.091H661.512C665.373 755.091 668.663 755.828 671.381 757.303C674.098 758.762 676.17 760.792 677.595 763.393C679.037 765.979 679.758 768.962 679.758 772.342C679.758 775.723 679.028 778.706 677.57 781.291C676.112 783.876 673.999 785.89 671.231 787.332C668.48 788.773 665.149 789.494 661.238 789.494H648.437V780.869H659.498C661.57 780.869 663.277 780.512 664.619 779.8C665.978 779.071 666.989 778.068 667.652 776.792C668.331 775.499 668.671 774.016 668.671 772.342C668.671 770.652 668.331 769.177 667.652 767.918C666.989 766.642 665.978 765.656 664.619 764.96C663.26 764.247 661.537 763.891 659.449 763.891H652.19V806H641.427Z" fill="#7B7B7B"/>
<path d="M798.934 747L835.113 675.409V674.812H792.968V659.727H854.204V675.026L817.982 747H798.934Z" fill="#7B7B7B"/>
<path d="M774.74 659.727V747H756.288V677.241H755.777L735.791 689.77V673.406L757.396 659.727H774.74Z" fill="#7B7B7B"/>
<path d="M659.587 747V659.727H694.019C700.638 659.727 706.278 660.991 710.937 663.52C715.596 666.02 719.147 669.5 721.59 673.96C724.062 678.392 725.297 683.506 725.297 689.301C725.297 695.097 724.047 700.21 721.547 704.642C719.047 709.074 715.425 712.526 710.681 714.997C705.965 717.469 700.255 718.705 693.55 718.705H671.604V703.918H690.567C694.118 703.918 697.045 703.307 699.346 702.085C701.675 700.835 703.408 699.116 704.545 696.929C705.709 694.713 706.292 692.17 706.292 689.301C706.292 686.403 705.709 683.875 704.545 681.716C703.408 679.528 701.675 677.838 699.346 676.645C697.016 675.423 694.062 674.812 690.482 674.812H678.039V747H659.587Z" fill="#7B7B7B"/>
</g>
</g>
</g>
<defs>
<filter id="filter0_d_57_282" x="407.002" y="411" width="608" height="608" filterUnits="userSpaceOnUse" color-interpolation-filters="sRGB">
<feFlood flood-opacity="0" result="BackgroundImageFix"/>
<feColorMatrix in="SourceAlpha" type="matrix" values="0 0 0 0 0 0 0 0 0 0 0 0 0 0 0 0 0 0 127 0" result="hardAlpha"/>
<feOffset dy="4"/>
<feGaussianBlur stdDeviation="2"/>
<feComposite in2="hardAlpha" operator="out"/>
<feColorMatrix type="matrix" values="0 0 0 0 0.1675 0 0 0 0 0.110829 0 0 0 0 0.110829 0 0 0 0.6 0"/>
<feBlend mode="normal" in2="BackgroundImageFix" result="effect1_dropShadow_57_282"/>
<feBlend mode="normal" in="SourceGraphic" in2="effect1_dropShadow_57_282" result="shape"/>
</filter>
<linearGradient id="paint0_linear_57_282" x1="711.002" y1="411" x2="711.002" y2="1011" gradientUnits="userSpaceOnUse">
<stop stop-color="#333333"/>
<stop offset="1" stop-color="#999999"/>
</linearGradient>
</defs>
</svg>
