<svg width="1087" height="230" viewBox="0 0 1087 230" fill="none" xmlns="http://www.w3.org/2000/svg">
<g id="hero_art_work">
<path id="Magnesium" d="M12.0099 45.8182H48.0398L86.0938 138.659H87.7131L125.767 45.8182H161.797V184H133.459V94.0604H132.312L96.5518 183.325H77.255L41.495 93.723H40.348V184H12.0099V45.8182ZM214.88 185.957C208.268 185.957 202.375 184.81 197.203 182.516C192.03 180.177 187.936 176.736 184.923 172.192C181.954 167.604 180.47 161.892 180.47 155.055C180.47 149.297 181.527 144.462 183.641 140.548C185.755 136.635 188.634 133.486 192.277 131.102C195.921 128.718 200.059 126.919 204.692 125.705C209.37 124.49 214.273 123.635 219.401 123.141C225.428 122.511 230.286 121.926 233.975 121.386C237.663 120.802 240.339 119.947 242.004 118.822C243.668 117.698 244.5 116.034 244.5 113.83V113.425C244.5 109.152 243.151 105.845 240.452 103.506C237.798 101.167 234.02 99.9979 229.117 99.9979C223.944 99.9979 219.828 101.145 216.769 103.439C213.711 105.688 211.686 108.522 210.697 111.94L184.113 109.781C185.463 103.484 188.116 98.0412 192.075 93.4531C196.033 88.8201 201.138 85.2666 207.391 82.7926C213.688 80.2737 220.975 79.0142 229.252 79.0142C235.009 79.0142 240.519 79.6889 245.782 81.0383C251.09 82.3878 255.79 84.4794 259.884 87.3132C264.022 90.147 267.283 93.7905 269.667 98.2436C272.051 102.652 273.243 107.937 273.243 114.099V184H245.985V169.629H245.175C243.511 172.867 241.284 175.723 238.495 178.197C235.706 180.626 232.355 182.538 228.442 183.933C224.529 185.282 220.008 185.957 214.88 185.957ZM223.112 166.12C227.34 166.12 231.073 165.288 234.312 163.624C237.551 161.914 240.092 159.62 241.936 156.741C243.78 153.863 244.703 150.602 244.703 146.958V135.96C243.803 136.545 242.566 137.085 240.992 137.58C239.462 138.029 237.731 138.457 235.796 138.862C233.862 139.221 231.928 139.559 229.994 139.874C228.06 140.143 226.305 140.391 224.731 140.616C221.357 141.111 218.411 141.898 215.892 142.977C213.373 144.057 211.417 145.519 210.022 147.363C208.628 149.162 207.931 151.411 207.931 154.11C207.931 158.023 209.347 161.015 212.181 163.084C215.06 165.108 218.704 166.12 223.112 166.12ZM342.233 225.023C332.922 225.023 324.938 223.741 318.28 221.177C311.668 218.658 306.405 215.217 302.492 210.854C298.579 206.491 296.037 201.588 294.868 196.145L321.452 192.569C322.261 194.638 323.543 196.572 325.297 198.371C327.052 200.171 329.368 201.61 332.247 202.69C335.171 203.814 338.724 204.376 342.907 204.376C349.16 204.376 354.31 202.847 358.358 199.788C362.452 196.775 364.498 191.714 364.498 184.607V165.648H363.284C362.024 168.527 360.135 171.248 357.616 173.812C355.097 176.376 351.859 178.467 347.9 180.087C343.942 181.706 339.219 182.516 333.731 182.516C325.95 182.516 318.865 180.716 312.478 177.118C306.135 173.474 301.075 167.919 297.297 160.452C293.563 152.941 291.697 143.45 291.697 131.979C291.697 120.239 293.608 110.433 297.432 102.562C301.255 94.6901 306.338 88.7976 312.68 84.8842C319.068 80.9709 326.062 79.0142 333.664 79.0142C339.466 79.0142 344.324 80.0038 348.238 81.983C352.151 83.9171 355.3 86.3461 357.684 89.2699C360.113 92.1487 361.979 94.9825 363.284 97.7713H364.363V80.3636H392.904V185.012C392.904 193.828 390.745 201.205 386.427 207.143C382.108 213.08 376.126 217.533 368.479 220.502C360.877 223.516 352.129 225.023 342.233 225.023ZM342.84 160.925C347.473 160.925 351.386 159.778 354.58 157.484C357.819 155.145 360.293 151.816 362.002 147.498C363.756 143.135 364.633 137.917 364.633 131.844C364.633 125.772 363.779 120.509 362.069 116.056C360.36 111.558 357.886 108.072 354.648 105.598C351.409 103.124 347.473 101.887 342.84 101.887C338.117 101.887 334.136 103.169 330.898 105.733C327.659 108.252 325.207 111.76 323.543 116.259C321.879 120.757 321.047 125.952 321.047 131.844C321.047 137.827 321.879 143 323.543 147.363C325.252 151.681 327.704 155.032 330.898 157.416C334.136 159.755 338.117 160.925 342.84 160.925ZM444.52 124.085V184H415.777V80.3636H443.17V98.6484H444.385C446.679 92.621 450.525 87.853 455.922 84.3445C461.32 80.791 467.865 79.0142 475.557 79.0142C482.754 79.0142 489.028 80.5885 494.381 83.7372C499.734 86.8859 503.895 91.384 506.863 97.2315C509.832 103.034 511.317 109.961 511.317 118.013V184H482.574V123.141C482.619 116.798 480.999 111.85 477.716 108.297C474.432 104.698 469.912 102.899 464.154 102.899C460.286 102.899 456.867 103.731 453.898 105.396C450.974 107.06 448.68 109.489 447.016 112.683C445.397 115.831 444.565 119.632 444.52 124.085ZM581.2 186.024C570.54 186.024 561.364 183.865 553.672 179.547C546.025 175.184 540.133 169.021 535.994 161.06C531.856 153.053 529.787 143.585 529.787 132.654C529.787 121.994 531.856 112.638 535.994 104.586C540.133 96.5343 545.958 90.2595 553.469 85.7614C561.026 81.2633 569.888 79.0142 580.053 79.0142C586.89 79.0142 593.255 80.1162 599.148 82.3203C605.085 84.4794 610.258 87.7405 614.666 92.1037C619.119 96.4669 622.583 101.955 625.057 108.567C627.531 115.134 628.768 122.826 628.768 131.642V139.536H541.257V121.724H601.712C601.712 117.585 600.812 113.92 599.013 110.726C597.214 107.532 594.717 105.036 591.523 103.237C588.375 101.392 584.709 100.47 580.526 100.47C576.162 100.47 572.294 101.482 568.92 103.506C565.592 105.486 562.983 108.162 561.094 111.536C559.205 114.864 558.237 118.575 558.192 122.668V139.604C558.192 144.732 559.137 149.162 561.026 152.896C562.96 156.629 565.682 159.508 569.19 161.532C572.699 163.556 576.86 164.568 581.673 164.568C584.866 164.568 587.79 164.118 590.444 163.219C593.098 162.319 595.369 160.97 597.259 159.17C599.148 157.371 600.587 155.167 601.577 152.558L628.161 154.312C626.811 160.7 624.045 166.277 619.862 171.045C615.723 175.768 610.371 179.457 603.803 182.111C597.281 184.72 589.747 186.024 581.2 186.024ZM733.754 109.916L707.44 111.536C706.99 109.286 706.023 107.262 704.538 105.463C703.054 103.619 701.097 102.157 698.668 101.077C696.284 99.9529 693.428 99.3906 690.099 99.3906C685.646 99.3906 681.89 100.335 678.832 102.224C675.773 104.069 674.244 106.543 674.244 109.646C674.244 112.12 675.233 114.212 677.212 115.921C679.192 117.63 682.588 119.002 687.401 120.037L706.158 123.815C716.233 125.884 723.745 129.213 728.693 133.801C733.641 138.389 736.115 144.417 736.115 151.884C736.115 158.676 734.113 164.636 730.11 169.763C726.152 174.891 720.709 178.895 713.782 181.773C706.9 184.607 698.961 186.024 689.964 186.024C676.245 186.024 665.315 183.168 657.173 177.455C649.077 171.698 644.331 163.871 642.937 153.975L671.207 152.491C672.062 156.674 674.131 159.868 677.415 162.072C680.698 164.231 684.904 165.31 690.032 165.31C695.07 165.31 699.118 164.343 702.177 162.409C705.281 160.43 706.855 157.888 706.9 154.785C706.855 152.176 705.753 150.039 703.594 148.375C701.435 146.666 698.106 145.361 693.608 144.462L675.661 140.886C665.54 138.862 658.005 135.353 653.058 130.36C648.155 125.367 645.703 119.002 645.703 111.266C645.703 104.608 647.502 98.8733 651.101 94.0604C654.744 89.2474 659.85 85.5365 666.417 82.9276C673.029 80.3187 680.766 79.0142 689.627 79.0142C702.717 79.0142 713.017 81.7805 720.529 87.3132C728.086 92.8459 732.494 100.38 733.754 109.916ZM754.214 184V80.3636H782.957V184H754.214ZM768.653 67.0043C764.38 67.0043 760.714 65.5874 757.655 62.7535C754.642 59.8748 753.135 56.4337 753.135 52.4304C753.135 48.4721 754.642 45.076 757.655 42.2422C760.714 39.3634 764.38 37.924 768.653 37.924C772.926 37.924 776.57 39.3634 779.584 42.2422C782.642 45.076 784.172 48.4721 784.172 52.4304C784.172 56.4337 782.642 59.8748 779.584 62.7535C776.57 65.5874 772.926 67.0043 768.653 67.0043ZM872.441 139.874V80.3636H901.184V184H873.588V165.175H872.509C870.17 171.248 866.279 176.128 860.836 179.817C855.439 183.505 848.849 185.349 841.067 185.349C834.14 185.349 828.045 183.775 822.782 180.626C817.52 177.478 813.404 173.002 810.435 167.2C807.511 161.397 806.027 154.447 805.982 146.351V80.3636H834.725V141.223C834.77 147.34 836.412 152.176 839.65 155.729C842.889 159.283 847.23 161.06 852.672 161.06C856.136 161.06 859.374 160.272 862.388 158.698C865.402 157.079 867.831 154.695 869.675 151.546C871.564 148.397 872.486 144.507 872.441 139.874ZM924.175 184V80.3636H951.569V98.6484H952.783C954.942 92.576 958.541 87.7855 963.579 84.277C968.617 80.7685 974.644 79.0142 981.661 79.0142C988.768 79.0142 994.818 80.791 999.811 84.3445C1004.8 87.853 1008.13 92.621 1009.8 98.6484H1010.88C1012.99 92.7109 1016.81 87.9654 1022.35 84.4119C1027.92 80.8134 1034.51 79.0142 1042.12 79.0142C1051.79 79.0142 1059.64 82.0954 1065.66 88.2578C1071.74 94.3752 1074.77 103.057 1074.77 114.302V184H1046.1V119.969C1046.1 114.212 1044.57 109.894 1041.51 107.015C1038.45 104.136 1034.63 102.697 1030.04 102.697C1024.82 102.697 1020.75 104.361 1017.83 107.69C1014.9 110.973 1013.44 115.314 1013.44 120.712V184H985.574V119.362C985.574 114.279 984.113 110.231 981.189 107.217C978.31 104.204 974.509 102.697 969.786 102.697C966.592 102.697 963.714 103.506 961.15 105.126C958.631 106.7 956.629 108.927 955.145 111.805C953.66 114.639 952.918 117.968 952.918 121.791V184H924.175Z" fill="white"/>
<g id="XPhone Pro">
<rect id="body" x="94.5" y="120.476" width="899" height="36.3171" fill="black" stroke="white"/>
<rect id="camera_holder" x="755.232" y="109.5" width="211.927" height="11.0732" fill="black" stroke="white"/>
<rect id="v_up_button" x="816.695" y="131.451" width="76.9268" height="13.2683" stroke="white"/>
<rect id="v_down_button" x="715.719" y="131.451" width="76.9268" height="13.2683" stroke="white"/>
<path id="action_button" d="M967.159 138.634C967.159 143.814 962.96 148.012 957.781 148.012C952.601 148.012 948.402 143.814 948.402 138.634C948.402 133.455 952.601 129.256 957.781 129.256C962.96 129.256 967.159 133.455 967.159 138.634Z" stroke="white"/>
</g>
</g>
</svg>
