<svg width="49" height="49" viewBox="0 0 49 49" fill="none" xmlns="http://www.w3.org/2000/svg">
<path d="M49 24.5C49 38.031 38.031 49 24.5 49C10.969 49 0 38.031 0 24.5C0 10.969 10.969 0 24.5 0C38.031 0 49 10.969 49 24.5Z" fill="white"/>
<path d="M18.7857 14.9286H15.2857C16.8857 15.3857 19.5 16.619 20.6071 17.1786C20.55 16.7214 19.3691 15.4881 18.7857 14.9286Z" fill="black"/>
<path d="M21.1429 17.9286L16.1429 18.3571C19.7714 18.7857 21.4881 19.75 21.8929 20.1786L22.3571 19.9643C22.1286 19.3071 21.4524 18.3333 21.1429 17.9286Z" fill="black"/>
<path d="M27.2857 19.8214L26.6071 18.7143C29.2643 17.5429 32.4286 17.9167 33.6786 18.25C29.4286 18.8214 28.5357 20.5714 28.4643 20.4286C28.4071 20.3143 27.6548 19.9762 27.2857 19.8214Z" fill="black"/>
<path d="M26.2143 18.3571L25.3929 17.3571C27.9357 13.3286 31.381 10.7976 32.7857 10.0357C29.9857 13.4071 28.5 16.7024 28.1071 17.9286C27.25 18.0714 26.4881 18.2738 26.2143 18.3571Z" fill="black"/>
<path d="M28.6429 17.75L29 16.6786C30.7429 15.5357 32.3691 15.7024 32.9643 15.9286C31.0786 16.1857 29.2976 17.25 28.6429 17.75Z" fill="black"/>
<path d="M29.5357 15.75L30.5357 13.7143C31.7643 12.5429 33.4286 12.1786 34.1071 12.1429C32.8786 12.6286 30.5476 14.75 29.5357 15.75Z" fill="black"/>
<path d="M24.3571 11.8571C24.0429 11.2286 22.8929 10.2857 22.3571 9.89286L22.9286 3C25.0143 6.4 25.7024 9.0119 25.7857 9.89286C25.5571 10.0929 24.7381 11.2857 24.3571 11.8571Z" fill="black"/>
<path d="M26.2143 15.2857C26.1 14.5429 25.2143 13.0476 24.7857 12.3929C27.3571 7.39286 29.3214 6.32143 31.0714 5.28571C28.9571 8.54286 27.8571 12.3333 27.5714 13.8214L26.2143 15.2857Z" fill="black"/>
<path d="M22.7857 19.8214C21.8429 17.3643 17.9881 13.1548 16.1786 11.3571C20.9214 13.2143 25.2024 17.631 26.75 19.6071C24.9786 19.2357 23.3691 19.5952 22.7857 19.8214Z" fill="black"/>
<path d="M25 16.8929L21.8571 14.2857C21.1143 11.3143 18.0238 8.54762 16.5714 7.53571C22.1429 8.73571 25.25 13.4167 26.1071 15.6071L25 16.8929Z" fill="black"/>
<path d="M25.734 20.2833C25.4917 20.2612 25.2469 20.25 25 20.25C24.7283 20.25 24.4591 20.2636 24.1928 20.2903L24.9654 21.0519L25.734 20.2833Z" fill="black"/>
<path d="M22.8982 20.5274C21.5327 20.8935 20.2704 21.6092 19.174 22.596L21.3129 24.7044L24.2034 21.8139L22.8982 20.5274Z" fill="black"/>
<path d="M18.4104 23.3565C17.5001 24.3569 16.736 25.5611 16.1633 26.9122L17.6448 28.3725L20.5509 25.4664L18.4104 23.3565Z" fill="black"/>
<path d="M15.749 28.017C15.449 28.9306 15.2326 29.8985 15.1117 30.9056L16.8828 29.1345L15.749 28.017Z" fill="black"/>
<path d="M15.0004 32.9333C15.0001 32.8842 15 32.835 15 32.7857C15 32.7034 15.0006 32.6213 15.0019 32.5394L17.6503 29.8911L20.5878 32.7866L17.7404 35.6341L15.0004 32.9333Z" fill="black"/>
<path d="M15.0603 34.5055C15.1435 35.659 15.3141 36.7625 15.5806 37.7938L16.9784 36.3961L15.0603 34.5055Z" fill="black"/>
<path d="M15.9356 38.9629C16.4296 40.365 17.1303 41.5987 18.063 42.5972L20.6474 40.0127L17.7458 37.1526L15.9356 38.9629Z" fill="black"/>
<path d="M18.8485 43.3357C19.9311 44.227 21.2644 44.8528 22.8759 45.1415L24.3525 43.6648L21.4149 40.7692L18.8485 43.3357Z" fill="black"/>
<path d="M24.2413 45.3C24.4886 45.3142 24.7414 45.3214 25 45.3214C25.343 45.3214 25.6755 45.3097 25.9978 45.2866L25.12 44.4213L24.2413 45.3Z" fill="black"/>
<path d="M27.3561 45.1124C28.9426 44.8114 30.2394 44.1955 31.2844 43.3303L28.7294 40.8119L25.882 43.6593L27.3561 45.1124Z" fill="black"/>
<path d="M32.066 42.5877C33.002 41.5702 33.6844 40.3093 34.1544 38.8754L32.3976 37.1437L29.4914 40.0499L32.066 42.5877Z" fill="black"/>
<path d="M34.4864 37.6896C34.716 36.7175 34.8631 35.6824 34.9387 34.6027L33.1596 36.3817L34.4864 37.6896Z" fill="black"/>
<path d="M34.9965 32.4527C34.9988 32.5634 35 32.6744 35 32.7857C35 32.8634 34.9997 32.9409 34.9991 33.0183L32.3921 35.6252L29.4545 32.7296L32.345 29.8391L34.9965 32.4527Z" fill="black"/>
<path d="M34.8781 30.8229C34.7526 29.8224 34.5327 28.8611 34.2302 27.954L33.1071 29.0771L34.8781 30.8229Z" fill="black"/>
<path d="M33.8101 26.85C33.2357 25.5129 32.4731 24.3215 31.5669 23.3315L29.438 25.4605L32.3396 28.3206L33.8101 26.85Z" fill="black"/>
<path d="M30.8009 22.5735L28.6705 24.704L25.7329 21.8084L27.0323 20.509C28.4141 20.8666 29.6917 21.5816 30.8009 22.5735Z" fill="black"/>
<path d="M18.5079 36.3906L21.4095 39.2507L24.2569 36.4033L21.3553 33.5431L18.5079 36.3906Z" fill="black"/>
<path d="M22.1769 40.0072L25.1145 42.9028L27.9619 40.0554L25.0244 37.1598L22.1769 40.0072Z" fill="black"/>
<path d="M31.6301 36.3872L28.724 39.2933L25.7864 36.3978L28.6925 33.4916L31.6301 36.3872Z" fill="black"/>
<path d="M27.925 32.7351L25.0189 35.6413L22.1173 32.7811L25.0234 29.875L27.925 32.7351Z" fill="black"/>
<path d="M24.256 29.1185L21.3498 32.0246L18.4123 29.129L21.3184 26.2229L24.256 29.1185Z" fill="black"/>
<path d="M28.676 26.2225L31.5776 29.0826L28.687 31.9731L25.7854 29.113L28.676 26.2225Z" fill="black"/>
<path d="M25.018 28.3565L27.9085 25.466L24.9709 22.5704L22.0804 25.4609L25.018 28.3565Z" fill="black"/>
</svg>
