<svg width="12" height="26" viewBox="0 0 12 26" fill="none" xmlns="http://www.w3.org/2000/svg">
<path d="M2.27151 7.15714H0.171509C1.13151 7.43143 2.70008 8.17143 3.36437 8.50714C3.33008 8.23286 2.62151 7.49286 2.27151 7.15714Z" fill="url(#paint0_linear_173_12)"/>
<path d="M3.68579 8.95714L0.685795 9.21428C2.86294 9.47143 3.89294 10.05 4.13579 10.3071L4.41437 10.1786C4.27722 9.78429 3.87151 9.2 3.68579 8.95714Z" fill="url(#paint1_linear_173_12)"/>
<path d="M7.37151 10.0929L6.96437 9.42857C8.55865 8.72571 10.4572 8.95 11.2072 9.15C8.65722 9.49286 8.12151 10.5429 8.07865 10.4571C8.04437 10.3886 7.59294 10.1857 7.37151 10.0929Z" fill="url(#paint2_linear_173_12)"/>
<path d="M6.72865 9.21428L6.23579 8.61429C7.76151 6.19714 9.82865 4.67857 10.6715 4.22143C8.99151 6.24429 8.10008 8.22143 7.86437 8.95714C7.35008 9.04286 6.89294 9.16428 6.72865 9.21428Z" fill="url(#paint3_linear_173_12)"/>
<path d="M8.18579 8.85L8.40008 8.20714C9.44579 7.52143 10.4215 7.62143 10.7787 7.75714C9.64722 7.91143 8.57865 8.55 8.18579 8.85Z" fill="url(#paint4_linear_173_12)"/>
<path d="M8.72151 7.65L9.32151 6.42857C10.0587 5.72571 11.0572 5.50714 11.4644 5.48571C10.7272 5.77714 9.32865 7.05 8.72151 7.65Z" fill="url(#paint5_linear_173_12)"/>
<path d="M5.61437 5.31429C5.42579 4.93714 4.73579 4.37143 4.41437 4.13571L4.75722 0C6.00865 2.04 6.42151 3.60714 6.47151 4.13571C6.33437 4.25571 5.84294 4.97143 5.61437 5.31429Z" fill="url(#paint6_linear_173_12)"/>
<path d="M6.72865 7.37143C6.66008 6.92571 6.12865 6.02857 5.87151 5.63571C7.41437 2.63571 8.59294 1.99286 9.64294 1.37143C8.37437 3.32571 7.71437 5.6 7.54294 6.49286L6.72865 7.37143Z" fill="url(#paint7_linear_173_12)"/>
<path d="M4.67151 10.0929C4.10579 8.61857 1.79294 6.09286 0.707223 5.01429C3.55294 6.12857 6.12151 8.77857 7.05008 9.96428C5.98722 9.74143 5.02151 9.95714 4.67151 10.0929Z" fill="url(#paint8_linear_173_12)"/>
<path d="M6.00008 8.33571L4.11437 6.77143C3.66865 4.98857 1.81437 3.32857 0.942937 2.72143C4.28579 3.44143 6.15008 6.25 6.66437 7.56429L6.00008 8.33571Z" fill="url(#paint9_linear_173_12)"/>
<path d="M6.44043 10.37C6.295 10.3567 6.14812 10.35 6 10.35C5.83696 10.35 5.67543 10.3582 5.51567 10.3742L5.97927 10.8311L6.44043 10.37Z" fill="url(#paint10_linear_173_12)"/>
<path d="M4.73895 10.5164C3.91959 10.7361 3.16225 11.1655 2.5044 11.7576L3.78775 13.0226L5.52206 11.2883L4.73895 10.5164Z" fill="url(#paint11_linear_173_12)"/>
<path d="M2.04621 12.2139C1.50008 12.8141 1.04161 13.5366 0.697994 14.3473L1.58687 15.2235L3.33054 13.4798L2.04621 12.2139Z" fill="url(#paint12_linear_173_12)"/>
<path d="M0.449396 15.0102C0.269377 15.5584 0.139533 16.1391 0.0670339 16.7434L1.12966 15.6807L0.449396 15.0102Z" fill="url(#paint13_linear_173_12)"/>
<path d="M0.000254145 17.96C8.45965e-05 17.9305 0 17.901 0 17.8714C0 17.8221 0.000379509 17.7728 0.00113507 17.7237L1.59015 16.1346L3.35269 17.872L1.64423 19.5804L0.000254145 17.96Z" fill="url(#paint14_linear_173_12)"/>
<path d="M0.0361976 18.9033C0.0861133 19.5954 0.188478 20.2575 0.348386 20.8763L1.18702 20.0377L0.0361976 18.9033Z" fill="url(#paint15_linear_173_12)"/>
<path d="M0.561351 21.5777C0.857789 22.419 1.27817 23.1592 1.8378 23.7583L3.38846 22.2076L1.64751 20.4916L0.561351 21.5777Z" fill="url(#paint16_linear_173_12)"/>
<path d="M2.30909 24.2014C2.95867 24.7362 3.75866 25.1117 4.72551 25.2849L5.61149 24.3989L3.84895 22.6615L2.30909 24.2014Z" fill="url(#paint17_linear_173_12)"/>
<path d="M5.54478 25.38C5.69314 25.3885 5.84486 25.3929 6 25.3929C6.20579 25.3929 6.4053 25.3858 6.59869 25.372L6.07198 24.8528L5.54478 25.38Z" fill="url(#paint18_linear_173_12)"/>
<path d="M7.41366 25.2674C8.36557 25.0868 9.14361 24.7173 9.77063 24.1982L8.23766 22.6871L6.52919 24.3956L7.41366 25.2674Z" fill="url(#paint19_linear_173_12)"/>
<path d="M10.2396 23.7526C10.8012 23.1421 11.2107 22.3856 11.4926 21.5253L10.4385 20.4863L8.69487 22.2299L10.2396 23.7526Z" fill="url(#paint20_linear_173_12)"/>
<path d="M11.6919 20.8138C11.8296 20.2305 11.9179 19.6094 11.9632 18.9616L10.8957 20.029L11.6919 20.8138Z" fill="url(#paint21_linear_173_12)"/>
<path d="M11.9979 17.6716C11.9993 17.738 12 17.8046 12 17.8714C12 17.918 11.9998 17.9646 11.9994 18.011L10.4353 19.5751L8.67272 17.8378L10.407 16.1035L11.9979 17.6716Z" fill="url(#paint22_linear_173_12)"/>
<path d="M11.9269 16.6937C11.8516 16.0934 11.7196 15.5167 11.5381 14.9724L10.8642 15.6463L11.9269 16.6937Z" fill="url(#paint23_linear_173_12)"/>
<path d="M11.2861 14.31C10.9414 13.5077 10.4839 12.7929 9.94014 12.1989L8.66278 13.4763L10.4037 15.1924L11.2861 14.31Z" fill="url(#paint24_linear_173_12)"/>
<path d="M9.48055 11.7441L8.2023 13.0224L6.43975 11.285L7.21936 10.5054C8.04846 10.72 8.81504 11.149 9.48055 11.7441Z" fill="url(#paint25_linear_173_12)"/>
<path d="M2.10472 20.0344L3.84567 21.7504L5.55414 20.042L3.81318 18.3259L2.10472 20.0344Z" fill="url(#paint26_linear_173_12)"/>
<path d="M4.30616 22.2043L6.0687 23.9417L7.77717 22.2332L6.01463 20.4959L4.30616 22.2043Z" fill="url(#paint27_linear_173_12)"/>
<path d="M9.97805 20.0323L8.23438 21.776L6.47184 20.0387L8.21551 18.295L9.97805 20.0323Z" fill="url(#paint28_linear_173_12)"/>
<path d="M7.75502 17.8411L6.01135 19.5848L4.27039 17.8687L6.01406 16.125L7.75502 17.8411Z" fill="url(#paint29_linear_173_12)"/>
<path d="M5.55357 15.6711L3.8099 17.4148L2.04736 15.6774L3.79103 13.9338L5.55357 15.6711Z" fill="url(#paint30_linear_173_12)"/>
<path d="M8.20557 13.9335L9.94653 15.6496L8.21223 17.3839L6.47127 15.6678L8.20557 13.9335Z" fill="url(#paint31_linear_173_12)"/>
<path d="M6.01078 15.2139L7.74509 13.4796L5.98254 11.7422L4.24824 13.4765L6.01078 15.2139Z" fill="url(#paint32_linear_173_12)"/>
<defs>
<linearGradient id="paint0_linear_173_12" x1="5.81794" y1="0" x2="5.81794" y2="10.4621" gradientUnits="userSpaceOnUse">
<stop stop-color="white"/>
<stop offset="1" stop-color="#999999"/>
</linearGradient>
<linearGradient id="paint1_linear_173_12" x1="5.81794" y1="0" x2="5.81794" y2="10.4621" gradientUnits="userSpaceOnUse">
<stop stop-color="white"/>
<stop offset="1" stop-color="#999999"/>
</linearGradient>
<linearGradient id="paint2_linear_173_12" x1="5.81794" y1="0" x2="5.81794" y2="10.4621" gradientUnits="userSpaceOnUse">
<stop stop-color="white"/>
<stop offset="1" stop-color="#999999"/>
</linearGradient>
<linearGradient id="paint3_linear_173_12" x1="5.81794" y1="0" x2="5.81794" y2="10.4621" gradientUnits="userSpaceOnUse">
<stop stop-color="white"/>
<stop offset="1" stop-color="#999999"/>
</linearGradient>
<linearGradient id="paint4_linear_173_12" x1="5.81794" y1="0" x2="5.81794" y2="10.4621" gradientUnits="userSpaceOnUse">
<stop stop-color="white"/>
<stop offset="1" stop-color="#999999"/>
</linearGradient>
<linearGradient id="paint5_linear_173_12" x1="5.81794" y1="0" x2="5.81794" y2="10.4621" gradientUnits="userSpaceOnUse">
<stop stop-color="white"/>
<stop offset="1" stop-color="#999999"/>
</linearGradient>
<linearGradient id="paint6_linear_173_12" x1="5.81794" y1="0" x2="5.81794" y2="10.4621" gradientUnits="userSpaceOnUse">
<stop stop-color="white"/>
<stop offset="1" stop-color="#999999"/>
</linearGradient>
<linearGradient id="paint7_linear_173_12" x1="5.81794" y1="0" x2="5.81794" y2="10.4621" gradientUnits="userSpaceOnUse">
<stop stop-color="white"/>
<stop offset="1" stop-color="#999999"/>
</linearGradient>
<linearGradient id="paint8_linear_173_12" x1="5.81794" y1="0" x2="5.81794" y2="10.4621" gradientUnits="userSpaceOnUse">
<stop stop-color="white"/>
<stop offset="1" stop-color="#999999"/>
</linearGradient>
<linearGradient id="paint9_linear_173_12" x1="5.81794" y1="0" x2="5.81794" y2="10.4621" gradientUnits="userSpaceOnUse">
<stop stop-color="white"/>
<stop offset="1" stop-color="#999999"/>
</linearGradient>
<linearGradient id="paint10_linear_173_12" x1="6" y1="10.35" x2="6" y2="25.3929" gradientUnits="userSpaceOnUse">
<stop stop-color="white"/>
<stop offset="1" stop-color="#999999"/>
</linearGradient>
<linearGradient id="paint11_linear_173_12" x1="6" y1="10.35" x2="6" y2="25.3929" gradientUnits="userSpaceOnUse">
<stop stop-color="white"/>
<stop offset="1" stop-color="#999999"/>
</linearGradient>
<linearGradient id="paint12_linear_173_12" x1="6" y1="10.35" x2="6" y2="25.3929" gradientUnits="userSpaceOnUse">
<stop stop-color="white"/>
<stop offset="1" stop-color="#999999"/>
</linearGradient>
<linearGradient id="paint13_linear_173_12" x1="6" y1="10.35" x2="6" y2="25.3929" gradientUnits="userSpaceOnUse">
<stop stop-color="white"/>
<stop offset="1" stop-color="#999999"/>
</linearGradient>
<linearGradient id="paint14_linear_173_12" x1="6" y1="10.35" x2="6" y2="25.3929" gradientUnits="userSpaceOnUse">
<stop stop-color="white"/>
<stop offset="1" stop-color="#999999"/>
</linearGradient>
<linearGradient id="paint15_linear_173_12" x1="6" y1="10.35" x2="6" y2="25.3929" gradientUnits="userSpaceOnUse">
<stop stop-color="white"/>
<stop offset="1" stop-color="#999999"/>
</linearGradient>
<linearGradient id="paint16_linear_173_12" x1="6" y1="10.35" x2="6" y2="25.3929" gradientUnits="userSpaceOnUse">
<stop stop-color="white"/>
<stop offset="1" stop-color="#999999"/>
</linearGradient>
<linearGradient id="paint17_linear_173_12" x1="6" y1="10.35" x2="6" y2="25.3929" gradientUnits="userSpaceOnUse">
<stop stop-color="white"/>
<stop offset="1" stop-color="#999999"/>
</linearGradient>
<linearGradient id="paint18_linear_173_12" x1="6" y1="10.35" x2="6" y2="25.3929" gradientUnits="userSpaceOnUse">
<stop stop-color="white"/>
<stop offset="1" stop-color="#999999"/>
</linearGradient>
<linearGradient id="paint19_linear_173_12" x1="6" y1="10.35" x2="6" y2="25.3929" gradientUnits="userSpaceOnUse">
<stop stop-color="white"/>
<stop offset="1" stop-color="#999999"/>
</linearGradient>
<linearGradient id="paint20_linear_173_12" x1="6" y1="10.35" x2="6" y2="25.3929" gradientUnits="userSpaceOnUse">
<stop stop-color="white"/>
<stop offset="1" stop-color="#999999"/>
</linearGradient>
<linearGradient id="paint21_linear_173_12" x1="6" y1="10.35" x2="6" y2="25.3929" gradientUnits="userSpaceOnUse">
<stop stop-color="white"/>
<stop offset="1" stop-color="#999999"/>
</linearGradient>
<linearGradient id="paint22_linear_173_12" x1="6" y1="10.35" x2="6" y2="25.3929" gradientUnits="userSpaceOnUse">
<stop stop-color="white"/>
<stop offset="1" stop-color="#999999"/>
</linearGradient>
<linearGradient id="paint23_linear_173_12" x1="6" y1="10.35" x2="6" y2="25.3929" gradientUnits="userSpaceOnUse">
<stop stop-color="white"/>
<stop offset="1" stop-color="#999999"/>
</linearGradient>
<linearGradient id="paint24_linear_173_12" x1="6" y1="10.35" x2="6" y2="25.3929" gradientUnits="userSpaceOnUse">
<stop stop-color="white"/>
<stop offset="1" stop-color="#999999"/>
</linearGradient>
<linearGradient id="paint25_linear_173_12" x1="6" y1="10.35" x2="6" y2="25.3929" gradientUnits="userSpaceOnUse">
<stop stop-color="white"/>
<stop offset="1" stop-color="#999999"/>
</linearGradient>
<linearGradient id="paint26_linear_173_12" x1="6" y1="10.35" x2="6" y2="25.3929" gradientUnits="userSpaceOnUse">
<stop stop-color="white"/>
<stop offset="1" stop-color="#999999"/>
</linearGradient>
<linearGradient id="paint27_linear_173_12" x1="6" y1="10.35" x2="6" y2="25.3929" gradientUnits="userSpaceOnUse">
<stop stop-color="white"/>
<stop offset="1" stop-color="#999999"/>
</linearGradient>
<linearGradient id="paint28_linear_173_12" x1="6" y1="10.35" x2="6" y2="25.3929" gradientUnits="userSpaceOnUse">
<stop stop-color="white"/>
<stop offset="1" stop-color="#999999"/>
</linearGradient>
<linearGradient id="paint29_linear_173_12" x1="6" y1="10.35" x2="6" y2="25.3929" gradientUnits="userSpaceOnUse">
<stop stop-color="white"/>
<stop offset="1" stop-color="#999999"/>
</linearGradient>
<linearGradient id="paint30_linear_173_12" x1="6" y1="10.35" x2="6" y2="25.3929" gradientUnits="userSpaceOnUse">
<stop stop-color="white"/>
<stop offset="1" stop-color="#999999"/>
</linearGradient>
<linearGradient id="paint31_linear_173_12" x1="6" y1="10.35" x2="6" y2="25.3929" gradientUnits="userSpaceOnUse">
<stop stop-color="white"/>
<stop offset="1" stop-color="#999999"/>
</linearGradient>
<linearGradient id="paint32_linear_173_12" x1="6" y1="10.35" x2="6" y2="25.3929" gradientUnits="userSpaceOnUse">
<stop stop-color="white"/>
<stop offset="1" stop-color="#999999"/>
</linearGradient>
</defs>
</svg>
