<svg width="343" height="500" viewBox="0 0 343 500" fill="none" xmlns="http://www.w3.org/2000/svg">
<g id="hero_art_work">
<path id="Magnesium" d="M3.79261 218.364H15.1705L27.1875 247.682H27.6989L39.7159 218.364H51.0938V262H42.1449V233.598H41.7827L30.4901 261.787H24.3963L13.1037 233.491H12.7415V262H3.79261V218.364ZM67.8569 262.618C65.7688 262.618 63.908 262.256 62.2745 261.531C60.641 260.793 59.3484 259.706 58.3967 258.271C57.4592 256.822 56.9904 255.018 56.9904 252.859C56.9904 251.041 57.3242 249.514 57.9918 248.278C58.6594 247.043 59.5685 246.048 60.7191 245.295C61.8697 244.543 63.1765 243.974 64.6396 243.591C66.1168 243.207 67.6651 242.938 69.2844 242.781C71.1879 242.582 72.7219 242.398 73.8867 242.227C75.0515 242.043 75.8967 241.773 76.4222 241.418C76.9478 241.062 77.2106 240.537 77.2106 239.841V239.713C77.2106 238.364 76.7844 237.32 75.9322 236.581C75.0941 235.842 73.9009 235.473 72.3526 235.473C70.7191 235.473 69.4194 235.835 68.4535 236.56C67.4876 237.27 66.8484 238.165 66.5359 239.244L58.141 238.562C58.5671 236.574 59.4052 234.855 60.6552 233.406C61.9052 231.943 63.5174 230.821 65.4918 230.04C67.4805 229.244 69.7816 228.847 72.3952 228.847C74.2134 228.847 75.9535 229.06 77.6154 229.486C79.2915 229.912 80.7759 230.572 82.0685 231.467C83.3754 232.362 84.4052 233.513 85.158 234.919C85.9109 236.311 86.2873 237.98 86.2873 239.926V262H77.6793V257.462H77.4237C76.8981 258.484 76.195 259.386 75.3143 260.168C74.4336 260.935 73.3754 261.538 72.1396 261.979C70.9038 262.405 69.4762 262.618 67.8569 262.618ZM70.4563 256.354C71.7915 256.354 72.9705 256.091 73.9933 255.565C75.016 255.026 75.8185 254.301 76.4009 253.392C76.9833 252.483 77.2745 251.453 77.2745 250.303V246.83C76.9904 247.014 76.5998 247.185 76.1026 247.341C75.6197 247.483 75.0728 247.618 74.462 247.746C73.8512 247.859 73.2404 247.966 72.6296 248.065C72.0188 248.151 71.4648 248.229 70.9677 248.3C69.9023 248.456 68.9719 248.705 68.1765 249.045C67.381 249.386 66.7631 249.848 66.3228 250.43C65.8825 250.999 65.6623 251.709 65.6623 252.561C65.6623 253.797 66.1097 254.741 67.0046 255.395C67.9137 256.034 69.0643 256.354 70.4563 256.354ZM108.074 274.955C105.133 274.955 102.612 274.55 100.51 273.74C98.4215 272.945 96.7596 271.858 95.5238 270.48C94.288 269.102 93.4854 267.554 93.1161 265.835L101.511 264.706C101.767 265.359 102.172 265.97 102.725 266.538C103.279 267.107 104.011 267.561 104.92 267.902C105.843 268.257 106.966 268.435 108.287 268.435C110.261 268.435 111.887 267.952 113.166 266.986C114.458 266.034 115.105 264.436 115.105 262.192V256.205H114.721C114.324 257.114 113.727 257.973 112.931 258.783C112.136 259.592 111.113 260.253 109.863 260.764C108.613 261.276 107.122 261.531 105.389 261.531C102.931 261.531 100.694 260.963 98.6772 259.827C96.6744 258.676 95.0763 256.922 93.8832 254.564C92.7042 252.192 92.1147 249.195 92.1147 245.572C92.1147 241.865 92.7184 238.768 93.9258 236.283C95.1332 233.797 96.7383 231.936 98.7411 230.7C100.758 229.464 102.967 228.847 105.368 228.847C107.2 228.847 108.734 229.159 109.97 229.784C111.206 230.395 112.2 231.162 112.953 232.085C113.72 232.994 114.309 233.889 114.721 234.77H115.062V229.273H124.075V262.32C124.075 265.104 123.393 267.433 122.029 269.308C120.666 271.183 118.777 272.589 116.362 273.527C113.961 274.479 111.199 274.955 108.074 274.955ZM108.265 254.713C109.728 254.713 110.964 254.351 111.973 253.626C112.995 252.888 113.777 251.837 114.316 250.473C114.87 249.095 115.147 247.447 115.147 245.53C115.147 243.612 114.877 241.95 114.338 240.544C113.798 239.124 113.017 238.023 111.994 237.241C110.971 236.46 109.728 236.07 108.265 236.07C106.774 236.07 105.517 236.474 104.494 237.284C103.471 238.08 102.697 239.187 102.172 240.608C101.646 242.028 101.383 243.669 101.383 245.53C101.383 247.419 101.646 249.053 102.172 250.43C102.711 251.794 103.485 252.852 104.494 253.605C105.517 254.344 106.774 254.713 108.265 254.713ZM140.375 243.08V262H131.298V229.273H139.949V235.047H140.332C141.056 233.143 142.271 231.638 143.975 230.53C145.68 229.408 147.747 228.847 150.176 228.847C152.449 228.847 154.43 229.344 156.12 230.338C157.811 231.332 159.125 232.753 160.062 234.599C161 236.432 161.468 238.619 161.468 241.162V262H152.392V242.781C152.406 240.778 151.895 239.216 150.858 238.094C149.821 236.957 148.393 236.389 146.575 236.389C145.353 236.389 144.274 236.652 143.336 237.178C142.413 237.703 141.689 238.47 141.163 239.479C140.652 240.473 140.389 241.673 140.375 243.08ZM183.537 262.639C180.17 262.639 177.273 261.957 174.844 260.594C172.429 259.216 170.568 257.27 169.261 254.756C167.955 252.227 167.301 249.237 167.301 245.786C167.301 242.419 167.955 239.464 169.261 236.922C170.568 234.379 172.408 232.398 174.78 230.977C177.166 229.557 179.964 228.847 183.175 228.847C185.334 228.847 187.344 229.195 189.205 229.891C191.08 230.572 192.713 231.602 194.105 232.98C195.511 234.358 196.605 236.091 197.386 238.179C198.168 240.253 198.558 242.682 198.558 245.466V247.959H170.923V242.334H190.014C190.014 241.027 189.73 239.869 189.162 238.861C188.594 237.852 187.805 237.064 186.797 236.496C185.803 235.913 184.645 235.622 183.324 235.622C181.946 235.622 180.724 235.942 179.659 236.581C178.608 237.206 177.784 238.051 177.188 239.116C176.591 240.168 176.286 241.339 176.271 242.632V247.98C176.271 249.599 176.57 250.999 177.166 252.178C177.777 253.357 178.636 254.266 179.744 254.905C180.852 255.544 182.166 255.864 183.686 255.864C184.695 255.864 185.618 255.722 186.456 255.438C187.294 255.153 188.011 254.727 188.608 254.159C189.205 253.591 189.659 252.895 189.972 252.071L198.366 252.625C197.94 254.642 197.067 256.403 195.746 257.909C194.439 259.401 192.749 260.565 190.675 261.403C188.615 262.227 186.236 262.639 183.537 262.639ZM231.712 238.605L223.402 239.116C223.26 238.406 222.955 237.767 222.486 237.199C222.017 236.616 221.399 236.155 220.632 235.814C219.879 235.459 218.977 235.281 217.926 235.281C216.52 235.281 215.334 235.58 214.368 236.176C213.402 236.759 212.919 237.54 212.919 238.52C212.919 239.301 213.232 239.962 213.857 240.501C214.482 241.041 215.554 241.474 217.074 241.801L222.997 242.994C226.179 243.648 228.551 244.699 230.114 246.148C231.676 247.597 232.457 249.5 232.457 251.858C232.457 254.003 231.825 255.885 230.561 257.504C229.311 259.124 227.592 260.388 225.405 261.297C223.232 262.192 220.724 262.639 217.884 262.639C213.551 262.639 210.099 261.737 207.528 259.933C204.972 258.115 203.473 255.643 203.033 252.518L211.96 252.05C212.23 253.371 212.884 254.379 213.92 255.075C214.957 255.757 216.286 256.098 217.905 256.098C219.496 256.098 220.774 255.793 221.74 255.182C222.72 254.557 223.217 253.754 223.232 252.774C223.217 251.95 222.869 251.276 222.188 250.75C221.506 250.21 220.455 249.798 219.034 249.514L213.366 248.385C210.17 247.746 207.791 246.638 206.229 245.061C204.68 243.484 203.906 241.474 203.906 239.031C203.906 236.929 204.474 235.118 205.611 233.598C206.761 232.078 208.374 230.906 210.447 230.082C212.536 229.259 214.979 228.847 217.777 228.847C221.911 228.847 225.163 229.72 227.536 231.467C229.922 233.214 231.314 235.594 231.712 238.605ZM238.173 262V229.273H247.25V262H238.173ZM242.733 225.054C241.383 225.054 240.225 224.607 239.26 223.712C238.308 222.803 237.832 221.716 237.832 220.452C237.832 219.202 238.308 218.129 239.26 217.234C240.225 216.325 241.383 215.871 242.733 215.871C244.082 215.871 245.233 216.325 246.184 217.234C247.15 218.129 247.633 219.202 247.633 220.452C247.633 221.716 247.15 222.803 246.184 223.712C245.233 224.607 244.082 225.054 242.733 225.054ZM275.508 248.065V229.273H284.585V262H275.87V256.055H275.529C274.79 257.973 273.562 259.514 271.843 260.679C270.138 261.844 268.058 262.426 265.6 262.426C263.413 262.426 261.488 261.929 259.826 260.935C258.164 259.94 256.864 258.527 255.927 256.695C255.004 254.862 254.535 252.668 254.521 250.111V229.273H263.597V248.491C263.612 250.423 264.13 251.95 265.153 253.072C266.175 254.195 267.546 254.756 269.265 254.756C270.359 254.756 271.381 254.507 272.333 254.01C273.285 253.499 274.052 252.746 274.634 251.751C275.231 250.757 275.522 249.528 275.508 248.065ZM291.845 262V229.273H300.495V235.047H300.879C301.561 233.129 302.697 231.616 304.288 230.509C305.879 229.401 307.782 228.847 309.998 228.847C312.243 228.847 314.153 229.408 315.73 230.53C317.306 231.638 318.358 233.143 318.883 235.047H319.224C319.892 233.172 321.099 231.673 322.846 230.551C324.608 229.415 326.689 228.847 329.089 228.847C332.143 228.847 334.622 229.82 336.525 231.766C338.443 233.697 339.402 236.439 339.402 239.99V262H330.346V241.78C330.346 239.962 329.863 238.598 328.897 237.689C327.931 236.78 326.724 236.325 325.275 236.325C323.627 236.325 322.342 236.851 321.419 237.902C320.495 238.939 320.034 240.31 320.034 242.014V262H311.234V241.588C311.234 239.983 310.772 238.705 309.849 237.753C308.94 236.801 307.74 236.325 306.248 236.325C305.24 236.325 304.331 236.581 303.521 237.092C302.725 237.589 302.093 238.293 301.625 239.202C301.156 240.097 300.922 241.148 300.922 242.355V262H291.845Z" fill="url(#paint0_linear_173_17)"/>
<g id="XPhone Pro">
<rect id="body" x="161.988" y="499.5" width="499" height="17.6585" transform="rotate(-90 161.988 499.5)" fill="black" stroke="white"/>
<rect id="camera_holder" x="156.5" y="132.427" width="117.293" height="5.03659" transform="rotate(-90 156.5 132.427)" fill="black" stroke="white"/>
<rect id="v_up_button" x="167.476" y="98.2805" width="42.2927" height="6.13415" transform="rotate(-90 167.476 98.2805)" stroke="white"/>
<rect id="v_down_button" x="167.476" y="154.378" width="42.2927" height="6.13415" transform="rotate(-90 167.476 154.378)" stroke="white"/>
<path id="action_button" d="M170.817 15.1341C173.22 15.1341 175.256 17.3164 175.256 20.1219C175.256 22.9275 173.22 25.1097 170.817 25.1097C168.414 25.1097 166.378 22.9275 166.378 20.1219C166.378 17.3164 168.414 15.1341 170.817 15.1341Z" stroke="white"/>
</g>
</g>
<defs>
<linearGradient id="paint0_linear_173_17" x1="171.5" y1="204" x2="171.5" y2="277" gradientUnits="userSpaceOnUse">
<stop stop-color="white"/>
<stop offset="1" stop-color="#999999"/>
</linearGradient>
</defs>
</svg>
