<svg width="100%" height="100%" viewBox="0 0 232 232" fill="none" xmlns="http://www.w3.org/2000/svg">
<path d="M0 0H232V232H0V0Z" fill="url(#paint0_linear_330_9)"/>
<path d="M6.18667 6.57333H225.427V225.813H6.18667V6.57333Z" fill="#101010"/>
<path d="M63.5101 88.8367H58.7734C60.9387 89.4553 64.4767 91.1244 65.9751 91.8817C65.8977 91.263 64.2995 89.5939 63.5101 88.8367Z" fill="#7B7B7B"/>
<path d="M66.7001 92.8967L59.9334 93.4767C64.8441 94.0567 67.1673 95.3617 67.7151 95.9417L68.3434 95.6517C68.0341 94.7623 67.119 93.4444 66.7001 92.8967Z" fill="#7B7B7B"/>
<path d="M75.0134 95.4583L74.0951 93.96C77.6911 92.3747 81.9734 92.8806 83.6651 93.3317C77.9134 94.105 76.7051 96.4733 76.6084 96.28C76.5311 96.1253 75.5128 95.6678 75.0134 95.4583Z" fill="#7B7B7B"/>
<path d="M73.5634 93.4767L72.4517 92.1233C75.8931 86.6713 80.5556 83.2461 82.4567 82.215C78.6674 86.7777 76.6567 91.2372 76.1251 92.8967C74.9651 93.09 73.934 93.3639 73.5634 93.4767Z" fill="#7B7B7B"/>
<path d="M76.8501 92.655L77.3334 91.205C79.6921 89.6583 81.8928 89.8839 82.6984 90.19C80.1464 90.538 77.7362 91.9783 76.8501 92.655Z" fill="#7B7B7B"/>
<path d="M78.0584 89.9483L79.4117 87.1933C81.0744 85.608 83.3267 85.115 84.2451 85.0667C82.5824 85.724 79.4278 88.595 78.0584 89.9483Z" fill="#7B7B7B"/>
<path d="M71.0501 84.68C70.6247 83.8293 69.0684 82.5533 68.3434 82.0217L69.1167 72.6933C71.9394 77.2947 72.8706 80.8294 72.9834 82.0217C72.6741 82.2923 71.5656 83.9067 71.0501 84.68Z" fill="#7B7B7B"/>
<path d="M73.5634 89.32C73.4087 88.3147 72.2101 86.2911 71.6301 85.405C75.1101 78.6383 77.7684 77.1883 80.1367 75.7867C77.2754 80.1947 75.7867 85.3244 75.4001 87.3383L73.5634 89.32Z" fill="#7B7B7B"/>
<path d="M68.9234 95.4583C67.6474 92.133 62.4306 86.4361 59.9817 84.0033C66.4004 86.5167 72.194 92.4939 74.2884 95.1683C71.8911 94.6657 69.7128 95.1522 68.9234 95.4583Z" fill="#7B7B7B"/>
<path d="M71.9201 91.495L67.6667 87.9667C66.6614 83.9453 62.479 80.2011 60.5134 78.8317C68.0534 80.4557 72.2584 86.7906 73.4184 89.755L71.9201 91.495Z" fill="#7B7B7B"/>
<path d="M72.9134 96.0833C72.5854 96.0535 72.2541 96.0383 71.92 96.0383C71.5522 96.0383 71.1879 96.0567 70.8276 96.0928L71.8732 97.1235L72.9134 96.0833Z" fill="#7B7B7B"/>
<path d="M69.0756 96.4137C67.2275 96.9092 65.5193 97.8778 64.0355 99.2133L66.9301 102.067L70.842 98.1548L69.0756 96.4137Z" fill="#7B7B7B"/>
<path d="M63.002 100.242C61.7702 101.596 60.7361 103.226 59.961 105.055L61.9659 107.031L65.8989 103.098L63.002 100.242Z" fill="#7B7B7B"/>
<path d="M59.4003 106.55C58.9943 107.786 58.7014 109.096 58.5379 110.459L60.9347 108.062L59.4003 106.55Z" fill="#7B7B7B"/>
<path d="M58.3872 113.203C58.3869 113.137 58.3867 113.07 58.3867 113.003C58.3867 112.892 58.3875 112.781 58.3892 112.67L61.9733 109.086L65.9488 113.005L62.0953 116.858L58.3872 113.203Z" fill="#7B7B7B"/>
<path d="M58.4683 115.331C58.5809 116.892 58.8118 118.385 59.1725 119.781L61.064 117.889L58.4683 115.331Z" fill="#7B7B7B"/>
<path d="M59.6528 121.363C60.3215 123.261 61.2696 124.93 62.5319 126.281L66.0295 122.784L62.1027 118.913L59.6528 121.363Z" fill="#7B7B7B"/>
<path d="M63.5949 127.281C65.0601 128.487 66.8645 129.334 69.0453 129.725L71.0437 127.726L67.0682 123.808L63.5949 127.281Z" fill="#7B7B7B"/>
<path d="M70.8932 129.939C71.2279 129.959 71.5701 129.968 71.92 129.968C72.3842 129.968 72.8342 129.952 73.2704 129.921L72.0824 128.75L70.8932 129.939Z" fill="#7B7B7B"/>
<path d="M75.1086 129.685C77.2557 129.278 79.0106 128.445 80.4249 127.274L76.9672 123.865L73.1136 127.719L75.1086 129.685Z" fill="#7B7B7B"/>
<path d="M81.4827 126.269C82.7493 124.892 83.673 123.185 84.3089 121.245L81.9314 118.901L77.9984 122.834L81.4827 126.269Z" fill="#7B7B7B"/>
<path d="M84.7583 119.64C85.0689 118.324 85.2681 116.923 85.3703 115.462L82.9626 117.87L84.7583 119.64Z" fill="#7B7B7B"/>
<path d="M85.4486 112.553C85.4518 112.702 85.4533 112.853 85.4533 113.003C85.4533 113.108 85.4529 113.213 85.452 113.318L81.924 116.846L77.9485 112.927L81.8603 109.016L85.4486 112.553Z" fill="#7B7B7B"/>
<path d="M85.2884 110.347C85.1185 108.993 84.8209 107.692 84.4115 106.464L82.8915 107.984L85.2884 110.347Z" fill="#7B7B7B"/>
<path d="M83.843 104.97C83.0656 103.161 82.0336 101.548 80.8072 100.209L77.9261 103.09L81.8529 106.961L83.843 104.97Z" fill="#7B7B7B"/>
<path d="M79.7706 99.1829L76.8874 102.066L72.9119 98.1473L74.6703 96.3889C76.5404 96.8729 78.2695 97.8405 79.7706 99.1829Z" fill="#7B7B7B"/>
<path d="M63.134 117.882L67.0608 121.753L70.9143 117.899L66.9875 114.028L63.134 117.882Z" fill="#7B7B7B"/>
<path d="M68.0995 122.776L72.075 126.695L75.9285 122.842L71.953 118.923L68.0995 122.776Z" fill="#7B7B7B"/>
<path d="M80.8927 117.877L76.9598 121.81L72.9843 117.892L76.9172 113.959L80.8927 117.877Z" fill="#7B7B7B"/>
<path d="M75.8785 112.935L71.9456 116.868L68.0188 112.997L71.9517 109.064L75.8785 112.935Z" fill="#7B7B7B"/>
<path d="M70.9131 108.04L66.9801 111.973L63.0046 108.055L66.9375 104.122L70.9131 108.04Z" fill="#7B7B7B"/>
<path d="M76.8948 104.121L80.8216 107.992L76.9098 111.904L72.983 108.033L76.8948 104.121Z" fill="#7B7B7B"/>
<path d="M71.9443 107.009L75.8561 103.097L71.8806 99.1786L67.9688 103.09L71.9443 107.009Z" fill="#7B7B7B"/>
<path d="M142.474 142.891C142.474 145.038 142.067 146.864 141.253 148.37C140.446 149.875 139.344 151.026 137.947 151.82C136.556 152.608 134.993 153.002 133.256 153.002C131.507 153.002 129.937 152.605 128.547 151.811C127.156 151.016 126.057 149.866 125.25 148.36C124.442 146.854 124.039 145.031 124.039 142.891C124.039 140.744 124.442 138.918 125.25 137.412C126.057 135.906 127.156 134.759 128.547 133.971C129.937 133.177 131.507 132.779 133.256 132.779C134.993 132.779 136.556 133.177 137.947 133.971C139.344 134.759 140.446 135.906 141.253 137.412C142.067 138.918 142.474 140.744 142.474 142.891ZM138.254 142.891C138.254 141.5 138.046 140.328 137.63 139.373C137.22 138.418 136.64 137.694 135.89 137.201C135.14 136.707 134.262 136.461 133.256 136.461C132.25 136.461 131.372 136.707 130.623 137.201C129.873 137.694 129.29 138.418 128.873 139.373C128.463 140.328 128.258 141.5 128.258 142.891C128.258 144.281 128.463 145.454 128.873 146.409C129.29 147.364 129.873 148.088 130.623 148.581C131.372 149.074 132.25 149.321 133.256 149.321C134.262 149.321 135.14 149.074 135.89 148.581C136.64 148.088 137.22 147.364 137.63 146.409C138.046 145.454 138.254 144.281 138.254 142.891Z" fill="#7B7B7B"/>
<path d="M106.622 152.733V133.048H114.388C115.875 133.048 117.144 133.314 118.195 133.846C119.252 134.372 120.056 135.118 120.607 136.086C121.165 137.047 121.443 138.178 121.443 139.479C121.443 140.786 121.162 141.911 120.598 142.852C120.034 143.788 119.217 144.506 118.147 145.005C117.083 145.505 115.795 145.755 114.283 145.755H109.083V142.41H113.61C114.404 142.41 115.064 142.301 115.59 142.084C116.115 141.866 116.506 141.539 116.763 141.103C117.025 140.667 117.157 140.126 117.157 139.479C117.157 138.825 117.025 138.274 116.763 137.826C116.506 137.377 116.112 137.037 115.58 136.807C115.055 136.57 114.392 136.451 113.591 136.451H110.784V152.733H106.622ZM117.253 143.775L122.145 152.733H117.551L112.764 143.775H117.253Z" fill="#7B7B7B"/>
<path d="M89.0976 152.733V133.048H96.8638C98.3569 133.048 99.6288 133.334 100.68 133.904C101.731 134.468 102.532 135.253 103.083 136.259C103.64 137.258 103.919 138.412 103.919 139.719C103.919 141.026 103.637 142.18 103.073 143.179C102.509 144.179 101.692 144.957 100.622 145.515C99.5583 146.072 98.2704 146.351 96.7581 146.351H91.8081V143.016H96.0853C96.8863 143.016 97.5463 142.878 98.0653 142.603C98.5908 142.321 98.9816 141.933 99.2379 141.44C99.5007 140.94 99.632 140.366 99.632 139.719C99.632 139.065 99.5007 138.495 99.2379 138.008C98.9816 137.515 98.5908 137.133 98.0653 136.864C97.5399 136.589 96.8735 136.451 96.0661 136.451H93.2594V152.733H89.0976Z" fill="#7B7B7B"/>
<path d="M150 129.92L163.989 102.238V102.007H147.693V96.1745H171.371V102.09L157.366 129.92H150Z" fill="#7B7B7B"/>
<path d="M140.645 96.1745V129.92H133.511V102.947H133.313L125.585 107.791V101.464L133.939 96.1745H140.645Z" fill="#7B7B7B"/>
<path d="M96.1196 129.92V96.1745H109.433C111.993 96.1745 114.173 96.6634 115.975 97.641C117.776 98.6077 119.149 99.9533 120.094 101.678C121.05 103.392 121.528 105.369 121.528 107.61C121.528 109.851 121.044 111.828 120.078 113.542C119.111 115.255 117.71 116.59 115.876 117.546C114.052 118.501 111.844 118.979 109.252 118.979H100.766V113.261H108.099C109.472 113.261 110.603 113.025 111.493 112.553C112.394 112.07 113.064 111.405 113.503 110.559C113.954 109.702 114.179 108.719 114.179 107.61C114.179 106.489 113.954 105.512 113.503 104.677C113.064 103.831 112.394 103.177 111.493 102.716C110.592 102.244 109.45 102.007 108.066 102.007H103.254V129.92H96.1196Z" fill="#7B7B7B"/>
<defs>
<linearGradient id="paint0_linear_330_9" x1="116" y1="0" x2="116" y2="232" gradientUnits="userSpaceOnUse">
<stop stop-color="#333333"/>
<stop offset="1" stop-color="#999999"/>
</linearGradient>
</defs>
</svg>
