<svg width="100%" height="100%" viewBox="0 0 32 32" fill="none" xmlns="http://www.w3.org/2000/svg">
<path fill-rule="evenodd" clip-rule="evenodd" d="M16 32C24.8365 32 32 24.8365 32 16C32 7.16346 24.8365 0 16 0C7.16346 0 0 7.16346 0 16C0 24.8365 7.16346 32 16 32ZM16 29.3147C23.3535 29.3147 29.3147 23.3535 29.3147 16C29.3147 8.64653 23.3535 2.68531 16 2.68531C8.64653 2.68531 2.68531 8.64653 2.68531 16C2.68531 23.3535 8.64653 29.3147 16 29.3147Z" fill="#0071E3"/>
<path d="M26.8531 15.8881L10.4056 25.3841L10.4056 6.39211L26.8531 15.8881Z" fill="#0071E3"/>
</svg>
