<svg width="100%" height="100%" viewBox="0 0 20 20" fill="none" xmlns="http://www.w3.org/2000/svg">
<path d="M8.77837 1.23129C8.77837 0.551267 9.32964 0 10.0097 0C10.6897 0 11.2409 0.551267 11.2409 1.23129V18.7687C11.2409 19.4487 10.6897 20 10.0097 20C9.32964 20 8.77837 19.4487 8.77837 18.7687V1.23129Z" fill="white"/>
<path d="M18.7687 8.75905C19.4487 8.75905 20 9.31032 20 9.99034C20 10.6704 19.4487 11.2216 18.7687 11.2216L1.23129 11.2216C0.551267 11.2216 -2.97247e-08 10.6704 0 9.99034C2.97247e-08 9.31032 0.551267 8.75905 1.23129 8.75905L18.7687 8.75905Z" fill="white"/>
</svg>
